<svg width="53" height="53" viewBox="0 0 53 53" fill="none" xmlns="http://www.w3.org/2000/svg">
<g clip-path="url(#clip0_20_2138)">
<g clip-path="url(#clip1_20_2138)">
<mask id="mask0_20_2138" style="mask-type:luminance" maskUnits="userSpaceOnUse" x="-1" y="0" width="55" height="53">
<path d="M26.4997 52.9981C11.8638 52.9981 -0.0012207 41.1331 -0.0012207 26.5009C-0.0012207 11.8688 11.8638 0 26.4997 0C41.1356 0 53.0006 11.865 53.0006 26.5009C52.9969 41.1331 41.1318 52.9981 26.4997 52.9981Z" fill="white"/>
</mask>
<g mask="url(#mask0_20_2138)">
<path d="M52.9969 0H-0.0012207V52.9981H52.9969V0Z" fill="#005BFF"/>
</g>
<mask id="mask1_20_2138" style="mask-type:luminance" maskUnits="userSpaceOnUse" x="-1" y="0" width="55" height="53">
<path d="M26.4997 52.9981C11.8638 52.9981 -0.0012207 41.1331 -0.0012207 26.5009C-0.0012207 11.8688 11.8638 0 26.4997 0C41.1356 0 53.0006 11.865 53.0006 26.5009C52.9969 41.1331 41.1318 52.9981 26.4997 52.9981Z" fill="white"/>
</mask>
<g mask="url(#mask1_20_2138)">
<path d="M58.8599 45.4071C54.833 49.0294 50.1906 54.3756 44.359 54.1651C42.7892 53.1072 45.2718 51.0449 46.0675 50.1523C48.6092 47.3011 51.1172 44.2576 53.5878 41.1554C62.4759 29.996 59.5663 36.2165 58.8603 45.4071H58.8599Z" fill="#F1117E"/>
<path d="M48.5243 -9.47936C44.5573 -0.40952 39.6935 8.60049 32.8306 15.8478C28.0816 20.8623 24.7752 24.6072 18.916 29.1139C12.138 34.3274 5.50664 38.3909 -0.913486 43.9192C-4.30622 47.0427 -8.30622 49.6259 -12.6218 51.4608C-12.5953 51.8126 -12.2326 56.9019 -12.2213 56.9692C-12.1615 56.9356 -10.9612 55.9708 -10.7219 55.7951C-0.593021 48.7509 11.0532 44.0168 20.9686 36.473C33.169 26.2099 43.388 13.5204 52.1141 0.220938C60.0562 -10.8674 65.2648 -11.0544 48.5243 -9.47936Z" fill="#F1117E"/>
<path d="M9.69473 2.80417C7.32771 5.30955 5.01678 7.81866 2.70211 10.3764C1.44194 11.7749 0.305172 13.2819 -0.940038 14.7028C-3.16496 17.2419 -5.46841 19.751 -8.09719 21.8263C-10.7634 23.9279 -13.6315 26.0518 -16.35 28.086C-16.3575 27.9327 -16.679 20.8055 -16.6865 20.6447C-15.5348 18.6927 -14.3756 16.4828 -13.5193 14.3626C-13.0145 13.1099 -12.5695 11.7936 -12.0609 10.5409C-11.0887 8.12903 -9.81356 5.9228 -7.9364 4.1653C-6.88937 3.18184 -5.6853 2.48632 -4.44757 1.82445C-0.734372 -0.164892 2.97508 -2.18789 6.69576 -4.15854C8.9132 -5.33644 10.5922 -7.38935 12.5703 -8.94119L20.4192 -9.29643C16.8556 -5.23922 13.4079 -1.12591 9.69473 2.80417Z" fill="#F1117E"/>
<path d="M26.9069 59.847C29.8606 56.848 40.2097 49.8815 38.5606 48.9265C38.4122 48.8405 38.2286 48.8409 38.0741 48.9153C32.3907 51.663 27.0845 55.5669 23.0912 60.5167C22.988 60.6446 22.8332 60.7186 22.6691 60.7167C21.7338 60.707 18.7109 60.6734 16.7717 60.6517C16.2534 60.6461 16.0459 59.9801 16.4692 59.6809C16.7975 59.4487 17.0693 59.2517 17.2227 59.1376C21.9062 55.5269 27.123 52.8169 32.1775 49.8711C38.2372 46.3392 43.4914 41.5779 47.6035 35.8959C49.4949 33.2825 51.4233 30.7016 53.6823 28.4146C53.7066 28.3899 53.7335 28.3678 53.7619 28.3484C60.0684 24.0623 61.8128 11.2449 70.5117 6.71538C70.871 6.52841 71.2996 6.78904 71.2962 7.19439C71.2674 10.4918 66.9099 13.1725 66.6238 16.5563C66.6209 16.5896 66.6156 16.6228 66.6066 16.655C63.2248 28.9515 52.357 38.2637 46.7012 44.6834C43.3418 48.4968 38.3082 55.1118 33.7294 60.1771C33.6789 60.2329 33.6415 60.2983 33.6179 60.3697C33.3891 61.0675 29.29 60.8263 27.2703 60.7549C26.8063 60.7384 26.5812 60.1779 26.9069 59.847Z" fill="#F1117E"/>
<path d="M-15.4532 62.8336C-4.11435 55.0093 9.43974 50.9372 20.546 42.8717C26.9793 37.3367 31.9003 30.1078 38.4247 24.7261C40.2278 23.6398 39.7219 25.2881 39.1363 26.3564C32.5831 39.4999 19.4986 47.0415 7.30643 54.251C-1.48632 59.8735 -3.23747 64.5604 -15.4536 62.8336H-15.4532Z" fill="#F1117E"/>
<path d="M63.2624 8.28717C73.1056 3.39981 70.5512 -1.76239 69.2765 -11.6261C64.1322 -7.97236 60.8969 -3.84073 56.968 0.980065C45.3467 14.4291 41.2293 34.1109 25.4817 44.1765C17.3953 48.8806 10.8597 55.5708 3.95117 61.7706C5.51273 61.2213 14.2711 62.1378 14.7135 59.7289C16.7787 56.2375 19.0324 53.4662 22.8283 51.8209C29.9488 48.0827 36.0926 42.7746 42.3399 37.7642C50.9124 29.2845 50.9192 13.2927 63.2628 8.28754L63.2624 8.28717Z" fill="#F1117E"/>
<path d="M47.3703 -9.40844C41.114 1.92484 29.6483 13.5072 18.0536 22.1799C13.5387 25.5569 8.29689 27.8218 2.75103 28.8393C-1.48007 29.6152 -3.32433 30.8492 -9.37126 35.9288C-11.4619 38.1081 -12.5875 40.1311 -14.3936 43.6125C-14.3974 43.4928 -14.8872 32.7533 -14.8872 32.7533C-10.0769 26.2001 -2.72191 23.3578 2.849 17.7738C7.44319 12.9765 10.6493 6.9614 14.8864 1.85454C17.0021 -0.83444 23.7083 -6.90007 24.9711 -8.39545C24.9861 -8.39545 31.9114 -8.70918 31.9114 -8.70918C28.7456 -4.69945 25.5212 -0.872956 18.8322 7.04292C18.0275 7.99533 11.38 14.8395 8.95015 18.605C8.1589 19.8312 7.62305 21.0779 8.22023 21.5431C8.85256 22.0359 9.74327 21.2162 11.1833 20.3166C19.4469 15.1536 25.2239 10.2797 31.9155 1.94428C42.7481 -11.5485 34.4448 -10.3489 47.3699 -9.40882L47.3703 -9.40844Z" fill="#F1117E"/>
<path d="M22.2864 30.4477L17.6945 31.6779L21.4783 22.3448C21.5613 22.1366 21.46 21.9006 21.2517 21.8172C21.1713 21.7851 21.0827 21.7798 20.9989 21.8015L12.5151 24.0747C11.7661 24.2755 11.3218 25.045 11.5223 25.794C11.7231 26.543 12.4926 26.9873 13.2416 26.7868L17.0565 25.7645L13.2517 35.1069C13.1657 35.3115 13.2618 35.5474 13.4664 35.6334C13.5501 35.6686 13.6436 35.6746 13.7311 35.6499L23.0137 33.1625C23.7511 32.9231 24.155 32.1315 23.9156 31.3941C23.6939 30.7102 22.9913 30.3048 22.2883 30.4544L22.2864 30.4469V30.4477ZM49.6863 14.1152C48.9373 14.316 48.493 15.0856 48.6935 15.8346L49.9121 20.3824L41.0244 16.5305C40.8217 16.4392 40.5839 16.5297 40.4927 16.7324C40.4541 16.818 40.447 16.9141 40.4721 17.0046L42.9771 26.3534C43.1779 27.1024 43.9475 27.5467 44.6964 27.3459C45.4454 27.1451 45.8897 26.3755 45.6893 25.6265L44.4706 21.0787L53.3594 24.9343C53.5659 25.0222 53.8041 24.9265 53.8919 24.7201C53.9275 24.6367 53.9342 24.544 53.911 24.4565L51.406 15.1077C51.2052 14.3587 50.4356 13.9144 49.6866 14.1149M32.613 27.9554C29.5127 28.7863 26.755 27.7733 26.3631 26.3112C25.9712 24.8491 27.8532 22.5931 30.9535 21.7622C34.0538 20.9314 36.8116 21.9443 37.2035 23.4064C37.5954 24.8685 35.7208 27.1226 32.613 27.9554ZM30.2277 19.0538C25.7386 20.2568 22.7953 23.8301 23.6546 27.0366C24.514 30.2431 28.8494 31.8664 33.3385 30.6634C37.8276 29.4605 40.7705 25.8871 39.9112 22.6806C39.0519 19.4741 34.7168 17.8509 30.2273 19.0538M5.9233 35.111C4.21179 35.5717 2.45055 34.558 1.98948 32.8461C1.52879 31.1342 2.54291 29.3734 4.25442 28.9123C5.96593 28.4516 7.72717 29.4653 8.18824 31.1772L8.18936 31.181C8.6478 32.8917 7.63369 34.6507 5.9233 35.111ZM3.53721 26.2057C0.328829 27.0632 -1.57713 30.3594 -0.71969 33.5678C0.137747 36.7766 3.434 38.6821 6.64275 37.8247C9.85113 36.9673 11.7571 33.671 10.8997 30.4623L10.8978 30.4548C10.0388 27.249 6.74334 25.3464 3.53758 26.2054" fill="white"/>
</g>
</g>
</g>
<defs>
<clipPath id="clip0_20_2138">
<rect width="52.9981" height="52.9981" fill="white"/>
</clipPath>
<clipPath id="clip1_20_2138">
<rect width="53.0018" height="52.9981" fill="white" transform="translate(-0.0012207)"/>
</clipPath>
</defs>
</svg>
