<svg width="394" height="330" viewBox="0 0 394 330" fill="none" xmlns="http://www.w3.org/2000/svg">
<mask id="mask0_20_1755" style="mask-type:alpha" maskUnits="userSpaceOnUse" x="0" y="0" width="394" height="330">
<rect x="0.191917" y="-0.191917" width="393.616" height="329.594" transform="matrix(1 0 0 -1 0 329.594)" fill="white" fill-opacity="0.66" stroke="#F8F8F8" stroke-width="0.383833"/>
</mask>
<g mask="url(#mask0_20_1755)">
<path d="M-27.4561 187.498L16.2024 105.701C26.8122 85.8229 51.8878 78.854 71.2329 90.4073C89.3054 101.201 95.72 124.282 85.8082 142.853L48.9654 211.88C38.2484 231.959 44.9156 256.908 64.2203 268.964C85.4744 282.238 113.524 274.742 125.324 252.635L218.958 77.2044C229.86 56.7786 255.778 49.8526 275.416 62.117C293.253 73.2566 299.413 96.3087 289.511 114.861L256.702 176.33C246.8 194.883 252.96 217.935 270.797 229.074C290.435 241.339 316.353 234.413 327.255 213.987L342.343 185.719C360.269 152.132 403.629 141.945 434.636 164.035" stroke="#BFDF2E" stroke-opacity="0.69" stroke-width="60"/>
</g>
</svg>
