<svg width="807" height="263" viewBox="0 0 807 263" fill="none" xmlns="http://www.w3.org/2000/svg">
<path d="M23.9266 7.1437H25.4138V5.65655H23.9266V7.1437ZM23.9266 29.3356H22.4395V33.3902L25.0611 30.2971L23.9266 29.3356ZM42.7361 7.1437V5.65655H42.0471L41.6016 6.18214L42.7361 7.1437ZM61.463 7.1437L62.5958 8.10725L64.6804 5.65655H61.463V7.1437ZM38.4462 34.2029L37.3134 33.2394L36.522 34.1698L37.281 35.127L38.4462 34.2029ZM62.783 64.892V66.3792H65.8603L63.9482 63.968L62.783 64.892ZM43.3135 64.892L42.1504 65.8186L42.5969 66.3792H43.3135V64.892ZM23.9266 40.5552L25.0898 39.6286L22.4395 36.3016V40.5552H23.9266ZM23.9266 64.892V66.3792H25.4138V64.892H23.9266ZM7.26209 64.892H5.77495V66.3792H7.26209V64.892ZM7.26209 7.1437V5.65655H5.77495V7.1437H7.26209ZM23.9266 7.1437H22.4395V29.3356H23.9266H25.4138V7.1437H23.9266ZM23.9266 29.3356L25.0611 30.2971L43.8705 8.10525L42.7361 7.1437L41.6016 6.18214L22.7921 28.374L23.9266 29.3356ZM42.7361 7.1437V8.63084H61.463V7.1437V5.65655H42.7361V7.1437ZM61.463 7.1437L60.3303 6.18015L37.3134 33.2394L38.4462 34.2029L39.579 35.1665L62.5958 8.10725L61.463 7.1437ZM38.4462 34.2029L37.281 35.127L61.6178 65.8161L62.783 64.892L63.9482 63.968L39.6114 33.2789L38.4462 34.2029ZM62.783 64.892V63.4049H43.3135V64.892V66.3792H62.783V64.892ZM43.3135 64.892L44.4767 63.9654L25.0898 39.6286L23.9266 40.5552L22.7634 41.4818L42.1504 65.8186L43.3135 64.892ZM23.9266 40.5552H22.4395V64.892H23.9266H25.4138V40.5552H23.9266ZM23.9266 64.892V63.4049H7.26209V64.892V66.3792H23.9266V64.892ZM7.26209 64.892H8.74924V7.1437H7.26209H5.77495V64.892H7.26209ZM7.26209 7.1437V8.63084H23.9266V7.1437V5.65655H7.26209V7.1437ZM63.8729 64.892L62.5488 64.2149L61.442 66.3792H63.8729V64.892ZM95.3869 3.26631L96.711 2.58921L95.3869 5.72205e-06L94.0629 2.58921L95.3869 3.26631ZM126.901 64.892V66.3792H129.332L128.225 64.2149L126.901 64.892ZM108.669 64.892L107.351 65.5807L107.768 66.3792H108.669V64.892ZM103.884 55.7348L105.202 55.0461L104.785 54.2476H103.884V55.7348ZM86.8072 55.7348V54.2476H85.8991L85.4843 55.0555L86.8072 55.7348ZM82.1048 64.892V66.3792H83.0129L83.4277 65.5714L82.1048 64.892ZM89.6946 43.7726L88.3346 43.1711L87.4107 45.2598H89.6946V43.7726ZM100.997 43.7726V45.2598H103.267L102.36 43.1784L100.997 43.7726ZM95.3869 30.903L96.7502 30.3088L95.3969 27.2041L94.0269 30.3014L95.3869 30.903ZM63.8729 64.892L65.1969 65.5691L96.711 3.94341L95.3869 3.26631L94.0629 2.58921L62.5488 64.2149L63.8729 64.892ZM95.3869 3.26631L94.0629 3.94341L125.577 65.5691L126.901 64.892L128.225 64.2149L96.711 2.58921L95.3869 3.26631ZM126.901 64.892V63.4049H108.669V64.892V66.3792H126.901V64.892ZM108.669 64.892L109.987 64.2033L105.202 55.0461L103.884 55.7348L102.566 56.4235L107.351 65.5807L108.669 64.892ZM103.884 55.7348V54.2476H86.8072V55.7348V57.2219H103.884V55.7348ZM86.8072 55.7348L85.4843 55.0555L80.7819 64.2127L82.1048 64.892L83.4277 65.5714L88.1301 56.4141L86.8072 55.7348ZM82.1048 64.892V63.4049H63.8729V64.892V66.3792H82.1048V64.892ZM89.6946 43.7726V45.2598H100.997V43.7726V42.2855H89.6946V43.7726ZM100.997 43.7726L102.36 43.1784L96.7502 30.3088L95.3869 30.903L94.0237 31.4973L99.6335 44.3669L100.997 43.7726ZM95.3869 30.903L94.0269 30.3014L88.3346 43.1711L89.6946 43.7726L91.0547 44.3742L96.747 31.5046L95.3869 30.903ZM150.892 7.1437H152.38V5.65655H150.892V7.1437ZM150.892 29.3356H149.405V33.3902L152.027 30.2971L150.892 29.3356ZM169.702 7.1437V5.65655H169.013L168.567 6.18214L169.702 7.1437ZM188.429 7.1437L189.562 8.10725L191.646 5.65655H188.429V7.1437ZM165.412 34.2029L164.279 33.2394L163.488 34.1698L164.247 35.127L165.412 34.2029ZM189.749 64.892V66.3792H192.826L190.914 63.968L189.749 64.892ZM170.279 64.892L169.116 65.8186L169.563 66.3792H170.279V64.892ZM150.892 40.5552L152.056 39.6286L149.405 36.3016V40.5552H150.892ZM150.892 64.892V66.3792H152.38V64.892H150.892ZM134.228 64.892H132.741V66.3792H134.228V64.892ZM134.228 7.1437V5.65655H132.741V7.1437H134.228ZM150.892 7.1437H149.405V29.3356H150.892H152.38V7.1437H150.892ZM150.892 29.3356L152.027 30.2971L170.836 8.10525L169.702 7.1437L168.567 6.18214L149.758 28.374L150.892 29.3356ZM169.702 7.1437V8.63084H188.429V7.1437V5.65655H169.702V7.1437ZM188.429 7.1437L187.296 6.18015L164.279 33.2394L165.412 34.2029L166.545 35.1665L189.562 8.10725L188.429 7.1437ZM165.412 34.2029L164.247 35.127L188.584 65.8161L189.749 64.892L190.914 63.968L166.577 33.2789L165.412 34.2029ZM189.749 64.892V63.4049H170.279V64.892V66.3792H189.749V64.892ZM170.279 64.892L171.443 63.9654L152.056 39.6286L150.892 40.5552L149.729 41.4818L169.116 65.8186L170.279 64.892ZM150.892 40.5552H149.405V64.892H150.892H152.38V40.5552H150.892ZM150.892 64.892V63.4049H134.228V64.892V66.3792H150.892V64.892ZM134.228 64.892H135.715V7.1437H134.228H132.741V64.892H134.228ZM134.228 7.1437V8.63084H150.892V7.1437V5.65655H134.228V7.1437ZM278.188 7.1437H279.675V5.65655H278.188V7.1437ZM278.188 64.892V66.3792H279.675V64.892H278.188ZM262.183 64.892H260.696V66.3792H262.183V64.892ZM262.183 41.8752H263.67V40.388H262.183V41.8752ZM239.414 41.8752V40.388H237.926V41.8752H239.414ZM239.414 64.892V66.3792H240.901V64.892H239.414ZM223.409 64.892H221.922V66.3792H223.409V64.892ZM223.409 7.1437V5.65655H221.922V7.1437H223.409ZM239.414 7.1437H240.901V5.65655H239.414V7.1437ZM239.414 27.5206H237.926V29.0078H239.414V27.5206ZM262.183 27.5206V29.0078H263.67V27.5206H262.183ZM262.183 7.1437V5.65655H260.696V7.1437H262.183ZM278.188 7.1437H276.7V64.892H278.188H279.675V7.1437H278.188ZM278.188 64.892V63.4049H262.183V64.892V66.3792H278.188V64.892ZM262.183 64.892H263.67V41.8752H262.183H260.696V64.892H262.183ZM262.183 41.8752V40.388H239.414V41.8752V43.3623H262.183V41.8752ZM239.414 41.8752H237.926V64.892H239.414H240.901V41.8752H239.414ZM239.414 64.892V63.4049H223.409V64.892V66.3792H239.414V64.892ZM223.409 64.892H224.896V7.1437H223.409H221.922V64.892H223.409ZM223.409 7.1437V8.63084H239.414V7.1437V5.65655H223.409V7.1437ZM239.414 7.1437H237.926V27.5206H239.414H240.901V7.1437H239.414ZM239.414 27.5206V29.0078H262.183V27.5206V26.0335H239.414V27.5206ZM262.183 27.5206H263.67V7.1437H262.183H260.696V27.5206H262.183ZM262.183 7.1437V8.63084H278.188V7.1437V5.65655H262.183V7.1437ZM291.685 67.7794H290.198V70.9243L292.629 68.9289L291.685 67.7794ZM291.685 7.1437V5.65655H290.198V7.1437H291.685ZM307.03 7.1437H308.517V5.65655H307.03V7.1437ZM307.03 36.1004H305.543V39.2419L307.973 37.2506L307.03 36.1004ZM345.886 4.25628H347.374V1.11476L344.944 3.10606L345.886 4.25628ZM345.886 64.892V66.3792H347.374V64.892H345.886ZM330.377 64.892H328.89V66.3792H330.377V64.892ZM330.377 36.0179H331.864V32.873L329.433 34.8684L330.377 36.0179ZM291.685 67.7794H293.173V7.1437H291.685H290.198V67.7794H291.685ZM291.685 7.1437V8.63084H307.03V7.1437V5.65655H291.685V7.1437ZM307.03 7.1437H305.543V36.1004H307.03H308.517V7.1437H307.03ZM307.03 36.1004L307.973 37.2506L346.829 5.40651L345.886 4.25628L344.944 3.10606L306.087 34.9501L307.03 36.1004ZM345.886 4.25628H344.399V64.892H345.886H347.374V4.25628H345.886ZM345.886 64.892V63.4049H330.377V64.892V66.3792H345.886V64.892ZM330.377 64.892H331.864V36.0179H330.377H328.89V64.892H330.377ZM330.377 36.0179L329.433 34.8684L290.742 66.63L291.685 67.7794L292.629 68.9289L331.32 37.1673L330.377 36.0179ZM24.2566 118.498V117.011H22.7695V118.498H24.2566ZM24.2566 161.892V163.379H25.7438V161.892H24.2566ZM7.92208 161.892H6.43493V163.379H7.92208V161.892ZM7.92208 104.144V102.657H6.43493V104.144H7.92208ZM59.7306 104.144H61.2177V102.657H59.7306V104.144ZM59.7306 161.892V163.379H61.2177V161.892H59.7306ZM43.4785 161.892H41.9914V163.379H43.4785V161.892ZM43.4785 118.498H44.9657V117.011H43.4785V118.498ZM24.2566 118.498H22.7695V161.892H24.2566H25.7438V118.498H24.2566ZM24.2566 161.892V160.405H7.92208V161.892V163.379H24.2566V161.892ZM7.92208 161.892H9.40922V104.144H7.92208H6.43493V161.892H7.92208ZM7.92208 104.144V105.631H59.7306V104.144V102.657H7.92208V104.144ZM59.7306 104.144H58.2434V161.892H59.7306H61.2177V104.144H59.7306ZM59.7306 161.892V160.405H43.4785V161.892V163.379H59.7306V161.892ZM43.4785 161.892H44.9657V118.498H43.4785H41.9914V161.892H43.4785ZM43.4785 118.498V117.011H24.2566V118.498V119.985H43.4785V118.498ZM73.0198 120.561L71.6592 119.96L71.6554 119.969L71.6518 119.977L73.0198 120.561ZM79.7846 110.991L78.7759 109.898H78.7759L79.7846 110.991ZM89.8493 104.886L90.3671 106.28L90.3758 106.277L90.3845 106.274L89.8493 104.886ZM114.846 104.886L114.304 106.271L114.316 106.276L114.328 106.28L114.846 104.886ZM124.911 110.991L125.919 109.898L124.911 110.991ZM131.511 120.561L130.135 121.127L130.139 121.136L130.143 121.144L131.511 120.561ZM131.593 145.475L130.215 144.916L131.593 145.475ZM124.993 155.375L126.034 156.437L126.035 156.436L124.993 155.375ZM115.011 161.81L115.546 163.197L115.555 163.194L115.563 163.19L115.011 161.81ZM89.6018 161.81L89.0495 163.19L89.058 163.194L89.0666 163.197L89.6018 161.81ZM79.5371 155.375L78.4855 156.426L78.4958 156.437L78.5063 156.447L79.5371 155.375ZM72.9373 145.557L71.5593 146.117L71.5642 146.129L71.5693 146.141L72.9373 145.557ZM88.6943 139.453L87.2955 139.958L87.3002 139.97L88.6943 139.453ZM91.6642 144.485L90.5504 145.47L90.56 145.481L90.5698 145.492L91.6642 144.485ZM96.2841 147.702L96.8649 146.333L96.2841 147.702ZM112.866 144.485L113.961 145.492L113.97 145.481L113.98 145.47L112.866 144.485ZM115.754 139.453L114.359 138.935L114.353 138.953L114.347 138.97L115.754 139.453ZM115.836 126.583L114.417 127.029L114.423 127.047L114.429 127.065L115.836 126.583ZM113.031 121.633L111.917 122.619L111.927 122.629L111.937 122.64L113.031 121.633ZM108.494 118.333L107.898 119.696H107.898L108.494 118.333ZM96.2841 118.333L96.8649 119.702L96.2841 118.333ZM91.6642 121.633L92.7587 122.64L92.7685 122.629L92.7781 122.619L91.6642 121.633ZM88.6943 126.583L90.0884 127.101V127.101L88.6943 126.583ZM70.6273 133.018H72.1145C72.1145 128.629 72.8805 124.678 74.3877 121.144L73.0198 120.561L71.6518 119.977C69.9691 123.923 69.1402 128.277 69.1402 133.018H70.6273ZM73.0198 120.561L74.3804 121.161C75.9523 117.598 78.0907 114.578 80.7933 112.084L79.7846 110.991L78.7759 109.898C75.7587 112.683 73.3872 116.044 71.6592 119.96L73.0198 120.561ZM79.7846 110.991L80.7933 112.084C83.503 109.582 86.6887 107.647 90.3671 106.28L89.8493 104.886L89.3315 103.492C85.3101 104.986 81.786 107.12 78.7759 109.898L79.7846 110.991ZM89.8493 104.886L90.3845 106.274C94.0484 104.86 98.045 104.146 102.389 104.146V102.659V101.172C97.7131 101.172 93.35 101.942 89.3141 103.499L89.8493 104.886ZM102.389 102.659V104.146C106.733 104.146 110.699 104.861 114.304 106.271L114.846 104.886L115.388 103.501C111.403 101.942 107.064 101.172 102.389 101.172V102.659ZM114.846 104.886L114.328 106.28C118.007 107.647 121.192 109.582 123.902 112.084L124.911 110.991L125.919 109.898C122.909 107.12 119.385 104.986 115.364 103.492L114.846 104.886ZM124.911 110.991L123.902 112.084C126.597 114.571 128.675 117.579 130.135 121.127L131.511 120.561L132.886 119.994C131.267 116.063 128.945 112.691 125.919 109.898L124.911 110.991ZM131.511 120.561L130.143 121.144C131.65 124.678 132.416 128.629 132.416 133.018H133.903H135.39C135.39 128.277 134.561 123.923 132.879 119.977L131.511 120.561ZM133.903 133.018H132.416C132.416 137.355 131.676 141.316 130.215 144.916L131.593 145.475L132.971 146.034C134.59 142.045 135.39 137.7 135.39 133.018H133.903ZM131.593 145.475L130.215 144.916C128.75 148.526 126.663 151.654 123.952 154.313L124.993 155.375L126.035 156.436C129.043 153.486 131.356 150.014 132.971 146.034L131.593 145.475ZM124.993 155.375L123.952 154.313C121.295 156.918 118.137 158.958 114.459 160.429L115.011 161.81L115.563 163.19C119.585 161.582 123.081 159.332 126.034 156.437L124.993 155.375ZM115.011 161.81L114.476 160.422C110.816 161.834 106.765 162.55 102.306 162.55V164.037V165.524C107.088 165.524 111.506 164.755 115.546 163.197L115.011 161.81ZM102.306 164.037V162.55C97.8478 162.55 93.7969 161.834 90.137 160.422L89.6018 161.81L89.0666 163.197C93.1065 164.755 97.5253 165.524 102.306 165.524V164.037ZM89.6018 161.81L90.1541 160.429C86.474 158.957 83.2835 156.914 80.5678 154.303L79.5371 155.375L78.5063 156.447C81.5106 159.335 85.0299 161.582 89.0495 163.19L89.6018 161.81ZM79.5371 155.375L80.5887 154.323C77.9215 151.656 75.8275 148.544 74.3052 144.974L72.9373 145.557L71.5693 146.141C73.237 150.051 75.5428 153.484 78.4855 156.426L79.5371 155.375ZM72.9373 145.557L74.3153 144.998C72.8552 141.4 72.1145 137.413 72.1145 133.018H70.6273H69.1402C69.1402 137.752 69.9394 142.125 71.5593 146.117L72.9373 145.557ZM87.6219 133.018H86.1347C86.1347 135.483 86.5167 137.801 87.2956 139.958L88.6943 139.453L90.0931 138.948C89.442 137.145 89.109 135.172 89.109 133.018H87.6219ZM88.6943 139.453L87.3002 139.97C88.0742 142.054 89.1551 143.893 90.5504 145.47L91.6642 144.485L92.7781 143.5C91.6435 142.217 90.7444 140.701 90.0884 138.935L88.6943 139.453ZM91.6642 144.485L90.5698 145.492C91.9861 147.031 93.7043 148.223 95.7033 149.071L96.2841 147.702L96.8649 146.333C95.234 145.642 93.8723 144.689 92.7587 143.478L91.6642 144.485ZM96.2841 147.702L95.7033 149.071C97.7265 149.93 99.9629 150.345 102.389 150.345V148.857V147.37C100.305 147.37 98.4716 147.015 96.8649 146.333L96.2841 147.702ZM102.389 148.857V150.345C104.764 150.345 106.952 149.928 108.925 149.065L108.329 147.702L107.733 146.34C106.186 147.017 104.413 147.37 102.389 147.37V148.857ZM108.329 147.702L108.925 149.065C110.868 148.215 112.552 147.023 113.961 145.492L112.866 144.485L111.772 143.478C110.65 144.697 109.309 145.65 107.733 146.34L108.329 147.702ZM112.866 144.485L113.98 145.47C115.383 143.884 116.441 142.033 117.16 139.935L115.754 139.453L114.347 138.97C113.746 140.722 112.879 142.226 111.752 143.5L112.866 144.485ZM115.754 139.453L117.148 139.97C117.933 137.857 118.313 135.533 118.313 133.018H116.826H115.339C115.339 135.232 115.004 137.199 114.359 138.935L115.754 139.453ZM116.826 133.018H118.313C118.313 130.515 117.964 128.204 117.243 126.101L115.836 126.583L114.429 127.065C115.028 128.812 115.339 130.791 115.339 133.018H116.826ZM115.836 126.583L117.255 126.137C116.59 124.021 115.55 122.175 114.126 120.626L113.031 121.633L111.937 122.64C113.042 123.842 113.873 125.296 114.417 127.029L115.836 126.583ZM113.031 121.633L114.145 120.648C112.736 119.055 111.046 117.827 109.09 116.971L108.494 118.333L107.898 119.696C109.461 120.38 110.796 121.351 111.917 122.619L113.031 121.633ZM108.494 118.333L109.09 116.971C107.108 116.104 104.863 115.691 102.389 115.691V117.178V118.665C104.534 118.665 106.36 119.023 107.898 119.696L108.494 118.333ZM102.389 117.178V115.691C99.9629 115.691 97.7265 116.106 95.7033 116.964L96.2841 118.333L96.8649 119.702C98.4716 119.021 100.305 118.665 102.389 118.665V117.178ZM96.2841 118.333L95.7033 116.964C93.6912 117.818 91.9671 119.046 90.5504 120.648L91.6642 121.633L92.7781 122.619C93.8913 121.36 95.2472 120.389 96.8649 119.702L96.2841 118.333ZM91.6642 121.633L90.5698 120.626C89.1618 122.157 88.0757 123.977 87.3002 126.065L88.6943 126.583L90.0884 127.101C90.7429 125.339 91.6368 123.86 92.7587 122.64L91.6642 121.633ZM88.6943 126.583L87.3002 126.065C86.5151 128.179 86.1347 130.503 86.1347 133.018H87.6219H89.109C89.109 130.803 89.4436 128.837 90.0884 127.101L88.6943 126.583ZM159.729 139.535L158.348 140.087L158.358 140.112L158.369 140.135L159.729 139.535ZM163.194 144.32L162.206 145.432L162.228 145.451L162.25 145.469L163.194 144.32ZM168.309 147.207L167.814 148.61L167.827 148.614L168.309 147.207ZM181.674 147.125L181.192 145.718L181.181 145.722L181.674 147.125ZM187.118 144.32L186.246 143.116L186.236 143.123L186.226 143.13L187.118 144.32ZM191.326 140.69H192.813V136.984L190.251 139.662L191.326 140.69ZM191.326 157.685L192.209 158.881L192.813 158.435V157.685H191.326ZM183.736 161.81L183.208 160.419L183.198 160.423L183.736 161.81ZM160.224 161.232L160.729 159.833L160.224 161.232ZM149.912 155.045L150.922 153.953L149.912 155.045ZM143.147 145.475L141.772 146.041L141.777 146.054L141.782 146.066L143.147 145.475ZM143.147 120.643L141.779 120.06L141.775 120.07L143.147 120.643ZM149.912 110.991L148.903 109.899L149.912 110.991ZM160.224 104.804L160.729 106.202L160.224 104.804ZM183.736 104.226L183.198 105.613L183.208 105.616L183.736 104.226ZM191.326 108.269H192.813V107.503L192.19 107.058L191.326 108.269ZM191.326 125.346L190.23 126.35L192.813 129.169V125.346H191.326ZM187.118 121.716L186.226 122.905L186.25 122.923L186.274 122.94L187.118 121.716ZM181.674 118.911L181.181 120.314L181.192 120.318L181.674 118.911ZM168.309 118.828L167.827 117.421L167.814 117.426L168.309 118.828ZM163.194 121.798L164.159 122.93L164.162 122.927L163.194 121.798ZM159.729 126.501L158.369 125.9L158.361 125.917L158.354 125.934L159.729 126.501ZM158.574 133.018H157.087C157.087 135.596 157.498 137.96 158.348 140.087L159.729 139.535L161.11 138.983C160.421 137.26 160.061 135.28 160.061 133.018H158.574ZM159.729 139.535L158.369 140.135C159.277 142.195 160.557 143.966 162.206 145.432L163.194 144.32L164.182 143.209C162.861 142.034 161.831 140.615 161.09 138.935L159.729 139.535ZM163.194 144.32L162.25 145.469C163.923 146.843 165.78 147.892 167.814 148.61L168.309 147.207L168.804 145.805C167.098 145.203 165.545 144.327 164.138 143.171L163.194 144.32ZM168.309 147.207L167.827 148.614C169.919 149.332 172.146 149.685 174.496 149.685V148.197V146.71C172.447 146.71 170.549 146.403 168.791 145.801L168.309 147.207ZM174.496 148.197V149.685C177.37 149.685 179.937 149.312 182.167 148.528L181.674 147.125L181.181 145.722C179.341 146.368 177.122 146.71 174.496 146.71V148.197ZM181.674 147.125L182.155 148.532C184.371 147.774 186.329 146.771 188.011 145.51L187.118 144.32L186.226 143.13C184.828 144.179 183.156 145.046 181.192 145.718L181.674 147.125ZM187.118 144.32L187.991 145.525C189.649 144.323 191.121 143.055 192.401 141.718L191.326 140.69L190.251 139.662C189.11 140.855 187.777 142.007 186.246 143.116L187.118 144.32ZM191.326 140.69H189.839V157.685H191.326H192.813V140.69H191.326ZM191.326 157.685L190.443 156.488C188.244 158.111 185.834 159.421 183.208 160.419L183.736 161.81L184.264 163.2C187.138 162.108 189.787 160.669 192.209 158.881L191.326 157.685ZM183.736 161.81L183.198 160.423C180.735 161.378 177.47 161.89 173.341 161.89V163.377V164.864C177.682 164.864 181.347 164.331 184.274 163.196L183.736 161.81ZM173.341 163.377V161.89C168.706 161.89 164.507 161.197 160.729 159.833L160.224 161.232L159.719 162.631C163.862 164.127 168.408 164.864 173.341 164.864V163.377ZM160.224 161.232L160.729 159.833C156.945 158.467 153.682 156.505 150.922 153.953L149.912 155.045L148.903 156.137C151.972 158.975 155.584 161.137 159.719 162.631L160.224 161.232ZM149.912 155.045L150.922 153.953C148.16 151.4 146.026 148.381 144.512 144.884L143.147 145.475L141.782 146.066C143.459 149.938 145.834 153.3 148.903 156.137L149.912 155.045ZM143.147 145.475L144.522 144.909C143.065 141.37 142.324 137.413 142.324 133.018H140.837H139.35C139.35 137.752 140.149 142.1 141.772 146.041L143.147 145.475ZM140.837 133.018H142.324C142.324 128.622 143.065 124.696 144.519 121.217L143.147 120.643L141.775 120.07C140.149 123.96 139.35 128.284 139.35 133.018H140.837ZM143.147 120.643L144.515 121.227C146.03 117.675 148.164 114.632 150.922 112.083L149.912 110.991L148.903 109.899C145.83 112.74 143.454 116.132 141.779 120.06L143.147 120.643ZM149.912 110.991L150.922 112.083C153.682 109.531 156.945 107.569 160.729 106.202L160.224 104.804L159.719 103.405C155.584 104.898 151.972 107.061 148.903 109.899L149.912 110.991ZM160.224 104.804L160.729 106.202C164.507 104.838 168.706 104.146 173.341 104.146V102.659V101.172C168.408 101.172 163.862 101.909 159.719 103.405L160.224 104.804ZM173.341 102.659V104.146C177.47 104.146 180.735 104.658 183.198 105.613L183.736 104.226L184.274 102.84C181.347 101.705 177.682 101.172 173.341 101.172V102.659ZM183.736 104.226L183.208 105.616C185.843 106.618 188.259 107.906 190.461 109.479L191.326 108.269L192.19 107.058C189.773 105.332 187.129 103.925 184.264 102.836L183.736 104.226ZM191.326 108.269H189.839V125.346H191.326H192.813V108.269H191.326ZM191.326 125.346L192.422 124.341C191.131 122.932 189.642 121.65 187.963 120.491L187.118 121.716L186.274 122.94C187.785 123.982 189.101 125.119 190.23 126.35L191.326 125.346ZM187.118 121.716L188.011 120.526C186.329 119.265 184.371 118.262 182.155 117.504L181.674 118.911L181.192 120.318C183.156 120.99 184.828 121.857 186.226 122.905L187.118 121.716ZM181.674 118.911L182.167 117.508C179.937 116.724 177.37 116.351 174.496 116.351V117.838V119.325C177.122 119.325 179.341 119.667 181.181 120.314L181.674 118.911ZM174.496 117.838V116.351C172.146 116.351 169.919 116.704 167.827 117.422L168.309 118.828L168.791 120.235C170.549 119.632 172.447 119.325 174.496 119.325V117.838ZM168.309 118.828L167.814 117.426C165.767 118.148 163.902 119.232 162.226 120.669L163.194 121.798L164.162 122.927C165.566 121.724 167.111 120.828 168.804 120.231L168.309 118.828ZM163.194 121.798L162.23 120.666C160.566 122.083 159.28 123.836 158.369 125.9L159.729 126.501L161.09 127.101C161.829 125.426 162.852 124.043 164.159 122.93L163.194 121.798ZM159.729 126.501L158.354 125.934C157.496 128.019 157.087 130.391 157.087 133.018H158.574H160.061C160.061 130.695 160.423 128.722 161.104 127.067L159.729 126.501ZM217.73 161.892V163.379H219.043L219.205 162.076L217.73 161.892ZM200.735 161.892L199.268 161.649L198.981 163.379H200.735V161.892ZM210.8 101.256L211.983 100.356L209.897 97.6129L209.333 101.013L210.8 101.256ZM235.962 134.338L234.778 135.238L235.964 136.797L237.147 135.236L235.962 134.338ZM261.041 101.256L262.508 101.015L261.946 97.6004L259.856 100.358L261.041 101.256ZM271.023 161.892V163.379H272.775L272.49 161.65L271.023 161.892ZM253.946 161.892L252.47 162.071L252.629 163.379H253.946V161.892ZM250.729 135.41L252.205 135.231L251.736 131.374L249.51 134.558L250.729 135.41ZM235.962 156.53L234.747 157.388L235.968 159.115L237.18 157.382L235.962 156.53ZM221.03 135.41L222.244 134.552L220.028 131.418L219.554 135.226L221.03 135.41ZM217.73 161.892V160.405H200.735V161.892V163.379H217.73V161.892ZM200.735 161.892L202.202 162.136L212.267 101.5L210.8 101.256L209.333 101.013L199.268 161.649L200.735 161.892ZM210.8 101.256L209.616 102.157L234.778 135.238L235.962 134.338L237.145 133.438L211.983 100.356L210.8 101.256ZM235.962 134.338L237.147 135.236L262.226 102.155L261.041 101.256L259.856 100.358L234.777 133.439L235.962 134.338ZM261.041 101.256L259.573 101.498L269.556 162.134L271.023 161.892L272.49 161.65L262.508 101.015L261.041 101.256ZM271.023 161.892V160.405H253.946V161.892V163.379H271.023V161.892ZM253.946 161.892L255.422 161.713L252.205 135.231L250.729 135.41L249.252 135.59L252.47 162.071L253.946 161.892ZM250.729 135.41L249.51 134.558L234.743 155.678L235.962 156.53L237.18 157.382L251.947 136.262L250.729 135.41ZM235.962 156.53L237.176 155.671L222.244 134.552L221.03 135.41L219.815 136.269L234.747 157.388L235.962 156.53ZM221.03 135.41L219.554 135.226L216.254 161.708L217.73 161.892L219.205 162.076L222.505 135.594L221.03 135.41ZM277.849 120.561L276.488 119.96L276.485 119.969L276.481 119.977L277.849 120.561ZM284.614 110.991L283.605 109.898L284.614 110.991ZM294.679 104.886L295.196 106.28L295.205 106.277L295.214 106.274L294.679 104.886ZM319.675 104.886L319.133 106.271L319.145 106.276L319.158 106.28L319.675 104.886ZM329.74 110.991L330.749 109.898L329.74 110.991ZM336.34 120.561L334.965 121.127L334.968 121.136L334.972 121.144L336.34 120.561ZM336.422 145.475L335.044 144.916L336.422 145.475ZM329.823 155.375L330.864 156.437L330.864 156.436L329.823 155.375ZM319.84 161.81L320.376 163.197L320.384 163.194L320.393 163.19L319.84 161.81ZM294.431 161.81L293.879 163.19L293.887 163.194L293.896 163.197L294.431 161.81ZM284.366 155.375L283.315 156.426L283.325 156.437L283.336 156.447L284.366 155.375ZM277.767 145.557L276.389 146.117L276.394 146.129L276.399 146.141L277.767 145.557ZM293.524 139.453L292.125 139.958L292.13 139.97L293.524 139.453ZM296.494 144.485L295.38 145.47L295.389 145.481L295.399 145.492L296.494 144.485ZM301.113 147.702L301.694 146.333L301.113 147.702ZM317.695 144.485L318.79 145.492L318.8 145.481L318.809 145.47L317.695 144.485ZM320.583 139.453L319.189 138.935L319.182 138.953L319.176 138.97L320.583 139.453ZM320.665 126.583L319.247 127.029L319.252 127.047L319.259 127.065L320.665 126.583ZM317.86 121.633L316.747 122.619L316.756 122.629L316.766 122.64L317.86 121.633ZM313.323 118.333L312.727 119.696L313.323 118.333ZM301.113 118.333L301.694 119.702L301.113 118.333ZM296.494 121.633L297.588 122.64L297.598 122.629L297.607 122.619L296.494 121.633ZM293.524 126.583L294.918 127.101V127.101L293.524 126.583ZM275.457 133.018H276.944C276.944 128.629 277.71 124.678 279.217 121.144L277.849 120.561L276.481 119.977C274.798 123.923 273.97 128.277 273.97 133.018H275.457ZM277.849 120.561L279.21 121.161C280.782 117.598 282.92 114.578 285.623 112.084L284.614 110.991L283.605 109.898C280.588 112.683 278.217 116.044 276.488 119.96L277.849 120.561ZM284.614 110.991L285.623 112.084C288.332 109.582 291.518 107.647 295.196 106.28L294.679 104.886L294.161 103.492C290.139 104.986 286.615 107.12 283.605 109.898L284.614 110.991ZM294.679 104.886L295.214 106.274C298.878 104.86 302.874 104.146 307.218 104.146V102.659V101.172C302.542 101.172 298.179 101.942 294.143 103.499L294.679 104.886ZM307.218 102.659V104.146C311.562 104.146 315.529 104.861 319.133 106.271L319.675 104.886L320.217 103.501C316.232 101.942 311.894 101.172 307.218 101.172V102.659ZM319.675 104.886L319.158 106.28C322.836 107.647 326.022 109.582 328.731 112.084L329.74 110.991L330.749 109.898C327.739 107.12 324.215 104.986 320.193 103.492L319.675 104.886ZM329.74 110.991L328.731 112.084C331.426 114.571 333.504 117.579 334.965 121.127L336.34 120.561L337.715 119.994C336.096 116.063 333.774 112.691 330.749 109.898L329.74 110.991ZM336.34 120.561L334.972 121.144C336.479 124.678 337.245 128.629 337.245 133.018H338.732H340.219C340.219 128.277 339.391 123.923 337.708 119.977L336.34 120.561ZM338.732 133.018H337.245C337.245 137.355 336.505 141.316 335.044 144.916L336.422 145.475L337.8 146.034C339.419 142.045 340.219 137.7 340.219 133.018H338.732ZM336.422 145.475L335.044 144.916C333.579 148.526 331.492 151.654 328.781 154.313L329.823 155.375L330.864 156.436C333.873 153.486 336.186 150.014 337.8 146.034L336.422 145.475ZM329.823 155.375L328.781 154.313C326.125 156.918 322.966 158.958 319.288 160.429L319.84 161.81L320.393 163.19C324.415 161.582 327.911 159.332 330.864 156.437L329.823 155.375ZM319.84 161.81L319.305 160.422C315.645 161.834 311.594 162.55 307.136 162.55V164.037V165.524C311.917 165.524 316.336 164.755 320.376 163.197L319.84 161.81ZM307.136 164.037V162.55C302.677 162.55 298.626 161.834 294.966 160.422L294.431 161.81L293.896 163.197C297.936 164.755 302.355 165.524 307.136 165.524V164.037ZM294.431 161.81L294.983 160.429C291.303 158.957 288.113 156.914 285.397 154.303L284.366 155.375L283.336 156.447C286.34 159.335 289.859 161.582 293.879 163.19L294.431 161.81ZM284.366 155.375L285.418 154.323C282.751 151.656 280.657 148.544 279.135 144.974L277.767 145.557L276.399 146.141C278.066 150.051 280.372 153.484 283.315 156.426L284.366 155.375ZM277.767 145.557L279.145 144.998C277.685 141.4 276.944 137.413 276.944 133.018H275.457H273.97C273.97 137.752 274.769 142.125 276.389 146.117L277.767 145.557ZM292.451 133.018H290.964C290.964 135.483 291.346 137.801 292.125 139.958L293.524 139.453L294.922 138.948C294.271 137.145 293.938 135.172 293.938 133.018H292.451ZM293.524 139.453L292.13 139.97C292.903 142.054 293.984 143.893 295.38 145.47L296.494 144.485L297.607 143.5C296.473 142.217 295.574 140.701 294.918 138.935L293.524 139.453ZM296.494 144.485L295.399 145.492C296.815 147.031 298.534 148.223 300.533 149.071L301.113 147.702L301.694 146.333C300.063 145.642 298.702 144.689 297.588 143.478L296.494 144.485ZM301.113 147.702L300.533 149.071C302.556 149.93 304.792 150.345 307.218 150.345V148.857V147.37C305.134 147.37 303.301 147.015 301.694 146.333L301.113 147.702ZM307.218 148.857V150.345C309.594 150.345 311.781 149.928 313.754 149.065L313.158 147.702L312.562 146.34C311.015 147.017 309.243 147.37 307.218 147.37V148.857ZM313.158 147.702L313.754 149.065C315.698 148.215 317.381 147.023 318.79 145.492L317.695 144.485L316.601 143.478C315.48 144.697 314.138 145.65 312.562 146.34L313.158 147.702ZM317.695 144.485L318.809 145.47C320.212 143.884 321.27 142.033 321.99 139.935L320.583 139.453L319.176 138.97C318.575 140.722 317.708 142.226 316.582 143.5L317.695 144.485ZM320.583 139.453L321.977 139.97C322.762 137.857 323.142 135.533 323.142 133.018H321.655H320.168C320.168 135.232 319.834 137.199 319.189 138.935L320.583 139.453ZM321.655 133.018H323.142C323.142 130.515 322.793 128.204 322.072 126.101L320.665 126.583L319.259 127.065C319.858 128.812 320.168 130.791 320.168 133.018H321.655ZM320.665 126.583L322.084 126.137C321.419 124.021 320.379 122.175 318.955 120.626L317.86 121.633L316.766 122.64C317.871 123.842 318.702 125.296 319.247 127.029L320.665 126.583ZM317.86 121.633L318.974 120.648C317.565 119.055 315.876 117.827 313.919 116.971L313.323 118.333L312.727 119.696C314.29 120.38 315.626 121.351 316.747 122.619L317.86 121.633ZM313.323 118.333L313.919 116.971C311.937 116.104 309.693 115.691 307.218 115.691V117.178V118.665C309.364 118.665 311.189 119.023 312.727 119.696L313.323 118.333ZM307.218 117.178V115.691C304.792 115.691 302.556 116.106 300.533 116.964L301.113 118.333L301.694 119.702C303.301 119.021 305.134 118.665 307.218 118.665V117.178ZM301.113 118.333L300.533 116.964C298.52 117.818 296.796 119.046 295.38 120.648L296.494 121.633L297.607 122.619C298.721 121.36 300.076 120.389 301.694 119.702L301.113 118.333ZM296.494 121.633L295.399 120.626C293.991 122.157 292.905 123.977 292.13 126.065L293.524 126.583L294.918 127.101C295.572 125.339 296.466 123.86 297.588 122.64L296.494 121.633ZM293.524 126.583L292.13 126.065C291.344 128.179 290.964 130.503 290.964 133.018H292.451H293.938C293.938 130.803 294.273 128.837 294.918 127.101L293.524 126.583ZM343.192 104.144V102.657H341.705V104.144H343.192ZM391.618 104.144H393.105V102.657H391.618V104.144ZM391.618 118.498V119.985H393.105V118.498H391.618ZM375.531 118.498V117.011H374.044V118.498H375.531ZM375.531 161.892V163.379H377.018V161.892H375.531ZM359.361 161.892H357.874V163.379H359.361V161.892ZM359.361 118.498H360.848V117.011H359.361V118.498ZM343.192 118.498H341.705V119.985H343.192V118.498ZM343.192 104.144V105.631H391.618V104.144V102.657H343.192V104.144ZM391.618 104.144H390.131V118.498H391.618H393.105V104.144H391.618ZM391.618 118.498V117.011H375.531V118.498V119.985H391.618V118.498ZM375.531 118.498H374.044V161.892H375.531H377.018V118.498H375.531ZM375.531 161.892V160.405H359.361V161.892V163.379H375.531V161.892ZM359.361 161.892H360.848V118.498H359.361H357.874V161.892H359.361ZM359.361 118.498V117.011H343.192V118.498V119.985H359.361V118.498ZM343.192 118.498H344.679V104.144H343.192H341.705V118.498H343.192ZM399.277 161.892H397.79V163.379H399.277V161.892ZM399.277 104.144V102.657H397.79V104.144H399.277ZM433.761 106.454L433.149 107.809L433.157 107.813L433.761 106.454ZM441.516 113.136L440.232 113.887L440.239 113.897L441.516 113.136ZM441.516 133.843L442.793 134.604L442.8 134.594L441.516 133.843ZM433.761 140.525L434.373 141.881L434.383 141.876L433.761 140.525ZM415.282 142.835V141.348H413.795V142.835H415.282ZM415.282 161.892V163.379H416.769V161.892H415.282ZM415.282 129.883H413.795V131.37H415.282V129.883ZM424.934 129.14L424.371 127.764L424.359 127.769L424.348 127.774L424.934 129.14ZM427.656 126.996L426.441 126.138L426.424 126.162L426.408 126.188L427.656 126.996ZM427.656 119.983L426.408 120.791L426.436 120.834L426.467 120.876L427.656 119.983ZM424.934 117.921L424.348 119.288L424.387 119.304L424.426 119.318L424.934 117.921ZM415.282 117.178V115.691H413.795V117.178H415.282ZM399.277 161.892H400.764V104.144H399.277H397.79V161.892H399.277ZM399.277 104.144V105.631H420.727V104.144V102.657H399.277V104.144ZM420.727 104.144V105.631C425.876 105.631 429.994 106.384 433.149 107.809L433.761 106.454L434.373 105.098C430.709 103.443 426.137 102.657 420.727 102.657V104.144ZM433.761 106.454L433.157 107.813C436.374 109.242 438.704 111.273 440.232 113.887L441.516 113.136L442.8 112.385C440.918 109.169 438.078 106.745 434.365 105.095L433.761 106.454ZM441.516 113.136L440.239 113.897C441.779 116.481 442.586 119.669 442.586 123.531H444.073H445.561C445.561 119.252 444.663 115.511 442.793 112.374L441.516 113.136ZM444.073 123.531H442.586C442.586 127.273 441.783 130.442 440.232 133.092L441.516 133.843L442.8 134.594C444.659 131.414 445.561 127.708 445.561 123.531H444.073ZM441.516 133.843L440.239 133.081C438.709 135.647 436.372 137.686 433.139 139.174L433.761 140.525L434.383 141.876C438.08 140.174 440.913 137.759 442.793 134.604L441.516 133.843ZM433.761 140.525L433.149 139.17C429.994 140.595 425.876 141.348 420.727 141.348V142.835V144.322C426.137 144.322 430.709 143.535 434.373 141.88L433.761 140.525ZM420.727 142.835V141.348H415.282V142.835V144.322H420.727V142.835ZM415.282 142.835H413.795V161.892H415.282H416.769V142.835H415.282ZM415.282 161.892V160.405H399.277V161.892V163.379H415.282V161.892ZM415.282 129.883V131.37H420.727V129.883V128.396H415.282V129.883ZM420.727 129.883V131.37C422.518 131.37 424.132 131.102 425.52 130.507L424.934 129.14L424.348 127.774C423.426 128.169 422.235 128.396 420.727 128.396V129.883ZM424.934 129.14L425.497 130.517C426.938 129.927 428.108 129.036 428.905 127.803L427.656 126.996L426.408 126.188C425.995 126.826 425.35 127.364 424.371 127.764L424.934 129.14ZM427.656 126.996L428.871 127.853C429.742 126.62 430.134 125.15 430.134 123.531H428.646H427.159C427.159 124.662 426.891 125.501 426.441 126.138L427.656 126.996ZM428.646 123.531H430.134C430.134 121.835 429.757 120.305 428.846 119.091L427.656 119.983L426.467 120.876C426.876 121.421 427.159 122.256 427.159 123.531H428.646ZM427.656 119.983L428.905 119.175C428.097 117.927 426.907 117.056 425.442 116.523L424.934 117.921L424.426 119.318C425.381 119.666 426.005 120.169 426.408 120.791L427.656 119.983ZM424.934 117.921L425.52 116.554C424.132 115.959 422.518 115.691 420.727 115.691V117.178V118.665C422.235 118.665 423.426 118.893 424.348 119.288L424.934 117.921ZM420.727 117.178V115.691H415.282V117.178V118.665H420.727V117.178ZM415.282 117.178H413.795V129.883H415.282H416.769V117.178H415.282ZM454.261 164.779H452.773V167.924L455.204 165.929L454.261 164.779ZM454.261 104.144V102.657H452.773V104.144H454.261ZM469.605 104.144H471.092V102.657H469.605V104.144ZM469.605 133.1H468.118V136.242L470.548 134.251L469.605 133.1ZM508.461 101.256H509.949V98.1148L507.519 100.106L508.461 101.256ZM508.461 161.892V163.379H509.949V161.892H508.461ZM492.952 161.892H491.465V163.379H492.952V161.892ZM492.952 133.018H494.439V129.873L492.008 131.868L492.952 133.018ZM454.261 164.779H455.748V104.144H454.261H452.773V164.779H454.261ZM454.261 104.144V105.631H469.605V104.144V102.657H454.261V104.144ZM469.605 104.144H468.118V133.1H469.605H471.092V104.144H469.605ZM469.605 133.1L470.548 134.251L509.404 102.407L508.461 101.256L507.519 100.106L468.662 131.95L469.605 133.1ZM508.461 101.256H506.974V161.892H508.461H509.949V101.256H508.461ZM508.461 161.892V160.405H492.952V161.892V163.379H508.461V161.892ZM492.952 161.892H494.439V133.018H492.952H491.465V161.892H492.952ZM492.952 133.018L492.008 131.868L453.317 163.63L454.261 164.779L455.204 165.929L493.896 134.167L492.952 133.018ZM548.03 136.153V134.666H546.543V136.153H548.03ZM615.018 136.153H616.505V134.666H615.018V136.153ZM615.018 148.362V149.85H616.505V148.362H615.018ZM548.03 148.362H546.543V149.85H548.03V148.362ZM548.03 136.153V137.64H615.018V136.153V134.666H548.03V136.153ZM615.018 136.153H613.531V148.362H615.018H616.505V136.153H615.018ZM615.018 148.362V146.875H548.03V148.362V149.85H615.018V148.362ZM548.03 148.362H549.517V136.153H548.03H546.543V148.362H548.03ZM1.48726 201.144V199.657H0.000112772V201.144H1.48726ZM49.9134 201.144H51.4005V199.657H49.9134V201.144ZM49.9134 215.498V216.985H51.4005V215.498H49.9134ZM33.8263 215.498V214.011H32.3392V215.498H33.8263ZM33.8263 258.892V260.379H35.3135V258.892H33.8263ZM17.6568 258.892H16.1696V260.379H17.6568V258.892ZM17.6568 215.498H19.1439V214.011H17.6568V215.498ZM1.48726 215.498H0.000112772V216.985H1.48726V215.498ZM1.48726 201.144V202.631H49.9134V201.144V199.657H1.48726V201.144ZM49.9134 201.144H48.4262V215.498H49.9134H51.4005V201.144H49.9134ZM49.9134 215.498V214.011H33.8263V215.498V216.985H49.9134V215.498ZM33.8263 215.498H32.3392V258.892H33.8263H35.3135V215.498H33.8263ZM33.8263 258.892V257.405H17.6568V258.892V260.379H33.8263V258.892ZM17.6568 258.892H19.1439V215.498H17.6568H16.1696V258.892H17.6568ZM17.6568 215.498V214.011H1.48726V215.498V216.985H17.6568V215.498ZM1.48726 215.498H2.97441V201.144H1.48726H0.000112772V215.498H1.48726ZM56.6653 217.561L55.3047 216.96L55.3009 216.969L55.2973 216.977L56.6653 217.561ZM63.4301 207.991L62.4214 206.898L63.4301 207.991ZM73.4948 201.886L74.0126 203.28L74.0213 203.277L74.03 203.274L73.4948 201.886ZM98.4916 201.886L97.9496 203.271L97.9617 203.276L97.9738 203.28L98.4916 201.886ZM108.556 207.991L109.565 206.898L108.556 207.991ZM115.156 217.561L113.781 218.127L113.784 218.136L113.788 218.144L115.156 217.561ZM115.239 242.475L113.861 241.916L115.239 242.475ZM108.639 252.375L109.68 253.437L109.68 253.436L108.639 252.375ZM98.6566 258.81L99.1917 260.197L99.2003 260.194L99.2089 260.19L98.6566 258.81ZM73.2473 258.81L72.695 260.19L72.7035 260.194L72.7121 260.197L73.2473 258.81ZM63.1826 252.375L62.131 253.426L62.1413 253.437L62.1518 253.447L63.1826 252.375ZM56.5828 242.557L55.2048 243.117L55.2097 243.129L55.2148 243.141L56.5828 242.557ZM72.3398 236.453L70.941 236.958L70.9457 236.97L72.3398 236.453ZM75.3097 241.485L74.1959 242.47L74.2055 242.481L74.2153 242.492L75.3097 241.485ZM79.9296 244.702L80.5104 243.333L79.9296 244.702ZM96.5116 241.485L97.6061 242.492L97.6159 242.481L97.6255 242.47L96.5116 241.485ZM99.399 236.453L98.005 235.935L97.9984 235.953L97.9923 235.97L99.399 236.453ZM99.4815 223.583L98.0628 224.029L98.0686 224.047L98.0748 224.065L99.4815 223.583ZM96.6766 218.633L95.5627 219.619L95.5724 219.629L95.5822 219.64L96.6766 218.633ZM92.1393 215.333L91.5432 216.696H91.5432L92.1393 215.333ZM79.9296 215.333L80.5104 216.702L79.9296 215.333ZM75.3097 218.633L76.4042 219.64L76.414 219.629L76.4236 219.619L75.3097 218.633ZM72.3398 223.583L73.7339 224.101V224.101L72.3398 223.583ZM54.2728 230.018H55.76C55.76 225.629 56.526 221.678 58.0332 218.144L56.6653 217.561L55.2973 216.977C53.6146 220.923 52.7857 225.277 52.7857 230.018H54.2728ZM56.6653 217.561L58.0259 218.161C59.5978 214.598 61.7362 211.578 64.4388 209.084L63.4301 207.991L62.4214 206.898C59.4041 209.683 57.0327 213.044 55.3047 216.96L56.6653 217.561ZM63.4301 207.991L64.4388 209.084C67.1485 206.582 70.3342 204.647 74.0126 203.28L73.4948 201.886L72.977 200.492C68.9556 201.986 65.4315 204.12 62.4214 206.898L63.4301 207.991ZM73.4948 201.886L74.03 203.274C77.6939 201.86 81.6905 201.146 86.0344 201.146V199.659V198.172C81.3586 198.172 76.9955 198.942 72.9596 200.499L73.4948 201.886ZM86.0344 199.659V201.146C90.3786 201.146 94.3449 201.861 97.9496 203.271L98.4916 201.886L99.0335 200.501C95.0484 198.942 90.71 198.172 86.0344 198.172V199.659ZM98.4916 201.886L97.9738 203.28C101.652 204.647 104.838 206.582 107.548 209.084L108.556 207.991L109.565 206.898C106.555 204.12 103.031 201.986 99.0094 200.492L98.4916 201.886ZM108.556 207.991L107.548 209.084C110.242 211.571 112.32 214.579 113.781 218.127L115.156 217.561L116.531 216.994C114.912 213.063 112.59 209.691 109.565 206.898L108.556 207.991ZM115.156 217.561L113.788 218.144C115.295 221.678 116.061 225.629 116.061 230.018H117.549H119.036C119.036 225.277 118.207 220.923 116.524 216.977L115.156 217.561ZM117.549 230.018H116.061C116.061 234.355 115.321 238.316 113.861 241.916L115.239 242.475L116.617 243.034C118.236 239.045 119.036 234.7 119.036 230.018H117.549ZM115.239 242.475L113.861 241.916C112.395 245.526 110.309 248.654 107.597 251.313L108.639 252.375L109.68 253.436C112.689 250.486 115.002 247.014 116.617 243.034L115.239 242.475ZM108.639 252.375L107.598 251.313C104.941 253.918 101.782 255.958 98.1042 257.429L98.6566 258.81L99.2089 260.19C103.231 258.582 106.727 256.332 109.68 253.437L108.639 252.375ZM98.6566 258.81L98.1214 257.422C94.4614 258.834 90.4106 259.55 85.9519 259.55V261.037V262.524C90.733 262.524 95.1519 261.755 99.1917 260.197L98.6566 258.81ZM85.9519 261.037V259.55C81.4933 259.55 77.4424 258.834 73.7825 257.422L73.2473 258.81L72.7121 260.197C76.752 261.755 81.1708 262.524 85.9519 262.524V261.037ZM73.2473 258.81L73.7996 257.429C70.1194 255.957 66.929 253.914 64.2133 251.303L63.1826 252.375L62.1518 253.447C65.156 256.335 68.6754 258.582 72.695 260.19L73.2473 258.81ZM63.1826 252.375L64.2342 251.323C61.567 248.656 59.473 245.544 57.9507 241.974L56.5828 242.557L55.2148 243.141C56.8825 247.051 59.1883 250.484 62.131 253.426L63.1826 252.375ZM56.5828 242.557L57.9608 241.998C56.5007 238.4 55.76 234.413 55.76 230.018H54.2728H52.7857C52.7857 234.752 53.5849 239.125 55.2048 243.117L56.5828 242.557ZM71.2673 230.018H69.7802C69.7802 232.483 70.1622 234.801 70.9411 236.958L72.3398 236.453L73.7386 235.948C73.0875 234.145 72.7545 232.172 72.7545 230.018H71.2673ZM72.3398 236.453L70.9457 236.97C71.7197 239.054 72.8006 240.893 74.1959 242.47L75.3097 241.485L76.4236 240.5C75.289 239.217 74.3899 237.701 73.7339 235.935L72.3398 236.453ZM75.3097 241.485L74.2153 242.492C75.6316 244.031 77.3498 245.223 79.3488 246.071L79.9296 244.702L80.5104 243.333C78.8795 242.642 77.5178 241.689 76.4042 240.478L75.3097 241.485ZM79.9296 244.702L79.3488 246.071C81.372 246.93 83.6084 247.345 86.0344 247.345V245.857V244.37C83.9505 244.37 82.1171 244.015 80.5104 243.333L79.9296 244.702ZM86.0344 245.857V247.345C88.4099 247.345 90.597 246.928 92.5703 246.065L91.9743 244.702L91.3782 243.34C89.8316 244.017 88.0588 244.37 86.0344 244.37V245.857ZM91.9743 244.702L92.5703 246.065C94.5138 245.215 96.1974 244.023 97.6061 242.492L96.5116 241.485L95.4172 240.478C94.2959 241.697 92.9546 242.65 91.3782 243.34L91.9743 244.702ZM96.5116 241.485L97.6255 242.47C99.0287 240.884 100.087 239.033 100.806 236.935L99.399 236.453L97.9923 235.97C97.3916 237.722 96.5245 239.226 95.3978 240.5L96.5116 241.485ZM99.399 236.453L100.793 236.97C101.578 234.857 101.959 232.533 101.959 230.018H100.472H98.9844C98.9844 232.232 98.6498 234.199 98.005 235.935L99.399 236.453ZM100.472 230.018H101.959C101.959 227.515 101.609 225.204 100.888 223.101L99.4815 223.583L98.0748 224.065C98.6737 225.812 98.9844 227.791 98.9844 230.018H100.472ZM99.4815 223.583L100.9 223.137C100.235 221.021 99.1956 219.175 97.7711 217.626L96.6766 218.633L95.5822 219.64C96.6875 220.842 97.518 222.296 98.0628 224.029L99.4815 223.583ZM96.6766 218.633L97.7905 217.648C96.3814 216.055 94.6919 214.827 92.7353 213.971L92.1393 215.333L91.5432 216.696C93.1064 217.38 94.4419 218.351 95.5627 219.619L96.6766 218.633ZM92.1393 215.333L92.7353 213.971C90.7534 213.104 88.5088 212.691 86.0344 212.691V214.178V215.665C88.1799 215.665 90.0052 216.023 91.5432 216.696L92.1393 215.333ZM86.0344 214.178V212.691C83.6084 212.691 81.372 213.106 79.3488 213.964L79.9296 215.333L80.5104 216.702C82.1171 216.021 83.9505 215.665 86.0344 215.665V214.178ZM79.9296 215.333L79.3488 213.964C77.3366 214.818 75.6126 216.046 74.1959 217.648L75.3097 218.633L76.4236 219.619C77.5368 218.36 78.8927 217.389 80.5104 216.702L79.9296 215.333ZM75.3097 218.633L74.2153 217.626C72.8073 219.157 71.7212 220.977 70.9457 223.065L72.3398 223.583L73.7339 224.101C74.3884 222.339 75.2823 220.86 76.4042 219.64L75.3097 218.633ZM72.3398 223.583L70.9457 223.065C70.1606 225.179 69.7802 227.503 69.7802 230.018H71.2673H72.7545C72.7545 227.803 73.0891 225.837 73.7339 224.101L72.3398 223.583ZM181.571 258.892V260.379H183.058V258.892H181.571ZM165.319 258.892H163.832V260.379H165.319V258.892ZM165.319 215.498H166.806V214.011H165.319V215.498ZM147.995 215.498V214.011H146.507V215.498H147.995ZM145.437 247.755L144.077 247.153L144.073 247.162L145.437 247.755ZM122.668 258.892H121.181V260.379H122.668V258.892ZM122.668 245.362V243.875H121.181V245.362H122.668ZM126.463 244.702L127.015 246.083L127.032 246.076L127.049 246.069L126.463 244.702ZM129.35 242.557L128.202 241.612L129.35 242.557ZM131.083 239.175L129.672 238.705L129.663 238.732L129.655 238.759L131.083 239.175ZM131.743 201.144V199.657H130.255V201.144H131.743ZM181.571 201.144H183.058V199.657H181.571V201.144ZM181.571 258.892V257.405H165.319V258.892V260.379H181.571V258.892ZM165.319 258.892H166.806V215.498H165.319H163.832V258.892H165.319ZM165.319 215.498V214.011H147.995V215.498V216.985H165.319V215.498ZM147.995 215.498H146.507V233.07H147.995H149.482V215.498H147.995ZM147.995 233.07H146.507C146.507 238.882 145.671 243.553 144.077 247.153L145.437 247.755L146.797 248.357C148.613 244.256 149.482 239.138 149.482 233.07H147.995ZM145.437 247.755L144.073 247.162C142.566 250.629 140.125 253.171 136.703 254.832L137.352 256.17L138.002 257.508C142.06 255.538 145.009 252.47 146.801 248.348L145.437 247.755ZM137.352 256.17L136.703 254.832C133.236 256.514 128.587 257.405 122.668 257.405V258.892V260.379C128.848 260.379 133.989 259.455 138.002 257.508L137.352 256.17ZM122.668 258.892H124.155V245.362H122.668H121.181V258.892H122.668ZM122.668 245.362V246.85C124.249 246.85 125.707 246.606 127.015 246.083L126.463 244.702L125.91 243.322C125.018 243.678 123.947 243.875 122.668 243.875V245.362ZM126.463 244.702L127.049 246.069C128.413 245.484 129.571 244.628 130.498 243.503L129.35 242.557L128.202 241.612C127.589 242.357 126.822 242.931 125.877 243.336L126.463 244.702ZM129.35 242.557L130.498 243.503C131.412 242.393 132.076 241.079 132.51 239.592L131.083 239.175L129.655 238.759C129.319 239.911 128.828 240.852 128.202 241.612L129.35 242.557ZM131.083 239.175L132.493 239.645C132.994 238.144 133.23 236.468 133.23 234.638H131.743H130.255C130.255 236.218 130.051 237.566 129.672 238.705L131.083 239.175ZM131.743 234.638H133.23V201.144H131.743H130.255V234.638H131.743ZM131.743 201.144V202.631H181.571V201.144V199.657H131.743V201.144ZM181.571 201.144H180.084V258.892H181.571H183.058V201.144H181.571ZM211.741 201.144H213.229V199.657H211.741V201.144ZM211.741 220.201H210.254V221.688H211.741V220.201ZM230.221 222.593L229.591 223.94L229.604 223.946L229.617 223.952L230.221 222.593ZM237.976 229.193L239.253 228.431L237.976 229.193ZM237.976 249.982L239.253 250.744L239.259 250.733L237.976 249.982ZM230.221 256.582L229.617 255.223L229.609 255.227L230.221 256.582ZM195.737 258.892H194.25V260.379H195.737V258.892ZM195.737 201.144V199.657H194.25V201.144H195.737ZM211.741 245.857H210.254V247.345H211.741V245.857ZM221.394 245.197L221.923 246.587L221.94 246.581L221.957 246.574L221.394 245.197ZM224.116 243.052L222.901 242.195L222.884 242.219L222.868 242.245L224.116 243.052ZM224.116 236.04L222.847 236.816L222.862 236.841L222.879 236.865L224.116 236.04ZM221.394 233.895L220.808 235.262L220.846 235.279L220.885 235.293L221.394 233.895ZM211.741 233.153V231.666H210.254V233.153H211.741ZM211.741 201.144H210.254V220.201H211.741H213.229V201.144H211.741ZM211.741 220.201V221.688H217.186V220.201V218.714H211.741V220.201ZM217.186 220.201V221.688C222.33 221.688 226.441 222.467 229.591 223.94L230.221 222.593L230.851 221.246C227.181 219.529 222.602 218.714 217.186 218.714V220.201ZM230.221 222.593L229.617 223.952C232.841 225.385 235.172 227.394 236.698 229.954L237.976 229.193L239.253 228.431C237.37 225.272 234.53 222.881 230.825 221.234L230.221 222.593ZM237.976 229.193L236.698 229.954C238.24 232.541 239.046 235.703 239.046 239.505H240.533H242.02C242.02 235.277 241.121 231.565 239.253 228.431L237.976 229.193ZM240.533 239.505H239.046C239.046 243.365 238.239 246.587 236.692 249.231L237.976 249.982L239.259 250.733C241.122 247.548 242.02 243.785 242.02 239.505H240.533ZM237.976 249.982L236.698 249.221C235.172 251.781 232.841 253.79 229.617 255.223L230.221 256.582L230.825 257.941C234.53 256.294 237.37 253.903 239.253 250.744L237.976 249.982ZM230.221 256.582L229.609 255.227C226.453 256.652 222.336 257.405 217.186 257.405V258.892V260.379C222.596 260.379 227.169 259.592 230.833 257.937L230.221 256.582ZM217.186 258.892V257.405H195.737V258.892V260.379H217.186V258.892ZM195.737 258.892H197.224V201.144H195.737H194.25V258.892H195.737ZM195.737 201.144V202.631H211.741V201.144V199.657H195.737V201.144ZM211.741 245.857V247.345H217.186V245.857V244.37H211.741V245.857ZM217.186 245.857V247.345C218.96 247.345 220.553 247.109 221.923 246.587L221.394 245.197L220.864 243.808C219.925 244.166 218.712 244.37 217.186 244.37V245.857ZM221.394 245.197L221.957 246.574C223.398 245.984 224.567 245.092 225.365 243.86L224.116 243.052L222.868 242.245C222.455 242.882 221.81 243.421 220.831 243.821L221.394 245.197ZM224.116 243.052L225.331 243.91C226.208 242.668 226.593 241.165 226.593 239.505H225.106H223.619C223.619 240.705 223.344 241.567 222.901 242.195L224.116 243.052ZM225.106 239.505H226.593C226.593 237.925 226.194 236.476 225.353 235.215L224.116 236.04L222.879 236.865C223.358 237.584 223.619 238.445 223.619 239.505H225.106ZM224.116 236.04L225.385 235.265C224.585 233.955 223.392 233.039 221.902 232.498L221.394 233.895L220.885 235.293C221.816 235.631 222.437 236.145 222.847 236.816L224.116 236.04ZM221.394 233.895L221.979 232.528C220.591 231.933 218.978 231.666 217.186 231.666V233.153V234.64C218.695 234.64 219.886 234.867 220.808 235.262L221.394 233.895ZM217.186 233.153V231.666H211.741V233.153V234.64H217.186V233.153ZM211.741 233.153H210.254V245.857H211.741H213.229V233.153H211.741ZM267.385 201.144H268.872V199.657H267.385V201.144ZM267.385 223.336H265.898V227.39L268.519 224.297L267.385 223.336ZM286.194 201.144V199.657H285.505L285.06 200.182L286.194 201.144ZM304.921 201.144L306.054 202.107L308.139 199.657H304.921V201.144ZM281.904 228.203L280.772 227.239L279.98 228.17L280.739 229.127L281.904 228.203ZM306.241 258.892V260.379H309.319L307.406 257.968L306.241 258.892ZM286.772 258.892L285.609 259.819L286.055 260.379H286.772V258.892ZM267.385 234.555L268.548 233.629L265.898 230.302V234.555H267.385ZM267.385 258.892V260.379H268.872V258.892H267.385ZM250.72 258.892H249.233V260.379H250.72V258.892ZM250.72 201.144V199.657H249.233V201.144H250.72ZM267.385 201.144H265.898V223.336H267.385H268.872V201.144H267.385ZM267.385 223.336L268.519 224.297L287.329 202.105L286.194 201.144L285.06 200.182L266.25 222.374L267.385 223.336ZM286.194 201.144V202.631H304.921V201.144V199.657H286.194V201.144ZM304.921 201.144L303.788 200.18L280.772 227.239L281.904 228.203L283.037 229.166L306.054 202.107L304.921 201.144ZM281.904 228.203L280.739 229.127L305.076 259.816L306.241 258.892L307.406 257.968L283.07 227.279L281.904 228.203ZM306.241 258.892V257.405H286.772V258.892V260.379H306.241V258.892ZM286.772 258.892L287.935 257.965L268.548 233.629L267.385 234.555L266.222 235.482L285.609 259.819L286.772 258.892ZM267.385 234.555H265.898V258.892H267.385H268.872V234.555H267.385ZM267.385 258.892V257.405H250.72V258.892V260.379H267.385V258.892ZM250.72 258.892H252.207V201.144H250.72H249.233V258.892H250.72ZM250.72 201.144V202.631H267.385V201.144V199.657H250.72V201.144ZM308.502 217.561L307.141 216.96L307.138 216.969L307.134 216.977L308.502 217.561ZM315.267 207.991L314.258 206.898L315.267 207.991ZM325.332 201.886L325.849 203.28L325.858 203.277L325.867 203.274L325.332 201.886ZM350.328 201.886L349.786 203.271L349.798 203.276L349.811 203.28L350.328 201.886ZM360.393 207.991L361.402 206.898L360.393 207.991ZM366.993 217.561L365.618 218.127L365.621 218.136L365.625 218.144L366.993 217.561ZM367.075 242.475L365.697 241.916L367.075 242.475ZM360.476 252.375L361.517 253.437L361.517 253.436L360.476 252.375ZM350.493 258.81L351.029 260.197L351.037 260.194L351.046 260.19L350.493 258.81ZM325.084 258.81L324.532 260.19L324.54 260.194L324.549 260.197L325.084 258.81ZM315.019 252.375L313.968 253.426L313.978 253.437L313.989 253.447L315.019 252.375ZM308.42 242.557L307.042 243.117L307.047 243.129L307.052 243.141L308.42 242.557ZM324.177 236.453L322.778 236.958L322.783 236.97L324.177 236.453ZM327.147 241.485L326.033 242.47L326.042 242.481L326.052 242.492L327.147 241.485ZM331.766 244.702L332.347 243.333L331.766 244.702ZM348.348 241.485L349.443 242.492L349.453 242.481L349.462 242.47L348.348 241.485ZM351.236 236.453L349.842 235.935L349.835 235.953L349.829 235.97L351.236 236.453ZM351.318 223.583L349.9 224.029L349.905 224.047L349.912 224.065L351.318 223.583ZM348.513 218.633L347.4 219.619L347.409 219.629L347.419 219.64L348.513 218.633ZM343.976 215.333L343.38 216.696L343.976 215.333ZM331.766 215.333L332.347 216.702L331.766 215.333ZM327.147 218.633L328.241 219.64L328.251 219.629L328.26 219.619L327.147 218.633ZM324.177 223.583L325.571 224.101V224.101L324.177 223.583ZM306.11 230.018H307.597C307.597 225.629 308.363 221.678 309.87 218.144L308.502 217.561L307.134 216.977C305.451 220.923 304.623 225.277 304.623 230.018H306.11ZM308.502 217.561L309.863 218.161C311.435 214.598 313.573 211.578 316.276 209.084L315.267 207.991L314.258 206.898C311.241 209.683 308.87 213.044 307.141 216.96L308.502 217.561ZM315.267 207.991L316.276 209.084C318.985 206.582 322.171 204.647 325.849 203.28L325.332 201.886L324.814 200.492C320.792 201.986 317.268 204.12 314.258 206.898L315.267 207.991ZM325.332 201.886L325.867 203.274C329.531 201.86 333.527 201.146 337.871 201.146V199.659V198.172C333.195 198.172 328.832 198.942 324.796 200.499L325.332 201.886ZM337.871 199.659V201.146C342.215 201.146 346.182 201.861 349.786 203.271L350.328 201.886L350.87 200.501C346.885 198.942 342.547 198.172 337.871 198.172V199.659ZM350.328 201.886L349.811 203.28C353.489 204.647 356.675 206.582 359.384 209.084L360.393 207.991L361.402 206.898C358.392 204.12 354.868 201.986 350.846 200.492L350.328 201.886ZM360.393 207.991L359.384 209.084C362.079 211.571 364.157 214.579 365.618 218.127L366.993 217.561L368.368 216.994C366.749 213.063 364.427 209.691 361.402 206.898L360.393 207.991ZM366.993 217.561L365.625 218.144C367.132 221.678 367.898 225.629 367.898 230.018H369.385H370.872C370.872 225.277 370.044 220.923 368.361 216.977L366.993 217.561ZM369.385 230.018H367.898C367.898 234.355 367.158 238.316 365.697 241.916L367.075 242.475L368.453 243.034C370.072 239.045 370.872 234.7 370.872 230.018H369.385ZM367.075 242.475L365.697 241.916C364.232 245.526 362.145 248.654 359.434 251.313L360.476 252.375L361.517 253.436C364.526 250.486 366.839 247.014 368.453 243.034L367.075 242.475ZM360.476 252.375L359.435 251.313C356.778 253.918 353.619 255.958 349.941 257.429L350.493 258.81L351.046 260.19C355.068 258.582 358.564 256.332 361.517 253.437L360.476 252.375ZM350.493 258.81L349.958 257.422C346.298 258.834 342.247 259.55 337.789 259.55V261.037V262.524C342.57 262.524 346.989 261.755 351.029 260.197L350.493 258.81ZM337.789 261.037V259.55C333.33 259.55 329.279 258.834 325.619 257.422L325.084 258.81L324.549 260.197C328.589 261.755 333.008 262.524 337.789 262.524V261.037ZM325.084 258.81L325.636 257.429C321.956 255.957 318.766 253.914 316.05 251.303L315.019 252.375L313.989 253.447C316.993 256.335 320.512 258.582 324.532 260.19L325.084 258.81ZM315.019 252.375L316.071 251.323C313.404 248.656 311.31 245.544 309.788 241.974L308.42 242.557L307.052 243.141C308.719 247.051 311.025 250.484 313.968 253.426L315.019 252.375ZM308.42 242.557L309.798 241.998C308.338 238.4 307.597 234.413 307.597 230.018H306.11H304.623C304.623 234.752 305.422 239.125 307.042 243.117L308.42 242.557ZM323.104 230.018H321.617C321.617 232.483 321.999 234.801 322.778 236.958L324.177 236.453L325.575 235.948C324.924 234.145 324.591 232.172 324.591 230.018H323.104ZM324.177 236.453L322.783 236.97C323.556 239.054 324.637 240.893 326.033 242.47L327.147 241.485L328.26 240.5C327.126 239.217 326.227 237.701 325.571 235.935L324.177 236.453ZM327.147 241.485L326.052 242.492C327.468 244.031 329.187 245.223 331.186 246.071L331.766 244.702L332.347 243.333C330.716 242.642 329.355 241.689 328.241 240.478L327.147 241.485ZM331.766 244.702L331.186 246.071C333.209 246.93 335.445 247.345 337.871 247.345V245.857V244.37C335.787 244.37 333.954 244.015 332.347 243.333L331.766 244.702ZM337.871 245.857V247.345C340.247 247.345 342.434 246.928 344.407 246.065L343.811 244.702L343.215 243.34C341.668 244.017 339.896 244.37 337.871 244.37V245.857ZM343.811 244.702L344.407 246.065C346.351 245.215 348.034 244.023 349.443 242.492L348.348 241.485L347.254 240.478C346.133 241.697 344.791 242.65 343.215 243.34L343.811 244.702ZM348.348 241.485L349.462 242.47C350.866 240.884 351.923 239.033 352.643 236.935L351.236 236.453L349.829 235.97C349.228 237.722 348.361 239.226 347.235 240.5L348.348 241.485ZM351.236 236.453L352.63 236.97C353.415 234.857 353.796 232.533 353.796 230.018H352.308H350.821C350.821 232.232 350.487 234.199 349.842 235.935L351.236 236.453ZM352.308 230.018H353.796C353.796 227.515 353.446 225.204 352.725 223.101L351.318 223.583L349.912 224.065C350.511 225.812 350.821 227.791 350.821 230.018H352.308ZM351.318 223.583L352.737 223.137C352.072 221.021 351.032 219.175 349.608 217.626L348.513 218.633L347.419 219.64C348.524 220.842 349.355 222.296 349.9 224.029L351.318 223.583ZM348.513 218.633L349.627 217.648C348.218 216.055 346.529 214.827 344.572 213.971L343.976 215.333L343.38 216.696C344.943 217.38 346.279 218.351 347.4 219.619L348.513 218.633ZM343.976 215.333L344.572 213.971C342.59 213.104 340.346 212.691 337.871 212.691V214.178V215.665C340.017 215.665 341.842 216.023 343.38 216.696L343.976 215.333ZM337.871 214.178V212.691C335.445 212.691 333.209 213.106 331.186 213.964L331.766 215.333L332.347 216.702C333.954 216.021 335.787 215.665 337.871 215.665V214.178ZM331.766 215.333L331.186 213.964C329.173 214.818 327.449 216.046 326.033 217.648L327.147 218.633L328.26 219.619C329.374 218.36 330.729 217.389 332.347 216.702L331.766 215.333ZM327.147 218.633L326.052 217.626C324.644 219.157 323.558 220.977 322.783 223.065L324.177 223.583L325.571 224.101C326.225 222.339 327.119 220.86 328.241 219.64L327.147 218.633ZM324.177 223.583L322.783 223.065C321.997 225.179 321.617 227.503 321.617 230.018H323.104H324.591C324.591 227.803 324.926 225.837 325.571 224.101L324.177 223.583ZM422.997 215.498V214.011H421.51V215.498H422.997ZM422.997 258.892V260.379H424.484V258.892H422.997ZM406.663 258.892H405.176V260.379H406.663V258.892ZM406.663 201.144V199.657H405.176V201.144H406.663ZM458.471 201.144H459.958V199.657H458.471V201.144ZM458.471 258.892V260.379H459.958V258.892H458.471ZM442.219 258.892H440.732V260.379H442.219V258.892ZM442.219 215.498H443.706V214.011H442.219V215.498ZM422.997 215.498H421.51V258.892H422.997H424.484V215.498H422.997ZM422.997 258.892V257.405H406.663V258.892V260.379H422.997V258.892ZM406.663 258.892H408.15V201.144H406.663H405.176V258.892H406.663ZM406.663 201.144V202.631H458.471V201.144V199.657H406.663V201.144ZM458.471 201.144H456.984V258.892H458.471H459.958V201.144H458.471ZM458.471 258.892V257.405H442.219V258.892V260.379H458.471V258.892ZM442.219 258.892H443.706V215.498H442.219H440.732V258.892H442.219ZM442.219 215.498V214.011H422.997V215.498V216.985H442.219V215.498ZM471.76 217.561L470.4 216.96L470.396 216.969L470.392 216.977L471.76 217.561ZM478.525 207.991L477.516 206.898L478.525 207.991ZM488.59 201.886L489.108 203.28L489.116 203.277L489.125 203.274L488.59 201.886ZM513.587 201.886L513.045 203.271L513.057 203.276L513.069 203.28L513.587 201.886ZM523.651 207.991L524.66 206.898L523.651 207.991ZM530.251 217.561L528.876 218.127L528.88 218.136L528.883 218.144L530.251 217.561ZM530.334 242.475L528.956 241.916L530.334 242.475ZM523.734 252.375L524.775 253.437L524.775 253.436L523.734 252.375ZM513.752 258.81L514.287 260.197L514.295 260.194L514.304 260.19L513.752 258.81ZM488.342 258.81L487.79 260.19L487.799 260.194L487.807 260.197L488.342 258.81ZM478.278 252.375L477.226 253.426L477.236 253.437L477.247 253.447L478.278 252.375ZM471.678 242.557L470.3 243.117L470.305 243.129L470.31 243.141L471.678 242.557ZM487.435 236.453L486.036 236.958L486.041 236.97L487.435 236.453ZM490.405 241.485L489.291 242.47L489.301 242.481L489.31 242.492L490.405 241.485ZM495.025 244.702L495.606 243.333L495.025 244.702ZM511.607 241.485L512.701 242.492L512.711 242.481L512.721 242.47L511.607 241.485ZM514.494 236.453L513.1 235.935L513.094 235.953L513.087 235.97L514.494 236.453ZM514.577 223.583L513.158 224.029L513.164 224.047L513.17 224.065L514.577 223.583ZM511.772 218.633L510.658 219.619L510.667 219.629L510.677 219.64L511.772 218.633ZM507.234 215.333L506.638 216.696L507.234 215.333ZM495.025 215.333L495.606 216.702L495.025 215.333ZM490.405 218.633L491.499 219.64L491.509 219.629L491.519 219.619L490.405 218.633ZM487.435 223.583L488.829 224.101V224.101L487.435 223.583ZM469.368 230.018H470.855C470.855 225.629 471.621 221.678 473.128 218.144L471.76 217.561L470.392 216.977C468.71 220.923 467.881 225.277 467.881 230.018H469.368ZM471.76 217.561L473.121 218.161C474.693 214.598 476.831 211.578 479.534 209.084L478.525 207.991L477.516 206.898C474.499 209.683 472.128 213.044 470.4 216.96L471.76 217.561ZM478.525 207.991L479.534 209.084C482.244 206.582 485.429 204.647 489.108 203.28L488.59 201.886L488.072 200.492C484.051 201.986 480.527 204.12 477.516 206.898L478.525 207.991ZM488.59 201.886L489.125 203.274C492.789 201.86 496.786 201.146 501.13 201.146V199.659V198.172C496.454 198.172 492.091 198.942 488.055 200.499L488.59 201.886ZM501.13 199.659V201.146C505.474 201.146 509.44 201.861 513.045 203.271L513.587 201.886L514.129 200.501C510.144 198.942 505.805 198.172 501.13 198.172V199.659ZM513.587 201.886L513.069 203.28C516.747 204.647 519.933 206.582 522.643 209.084L523.651 207.991L524.66 206.898C521.65 204.12 518.126 201.986 514.104 200.492L513.587 201.886ZM523.651 207.991L522.643 209.084C525.337 211.571 527.415 214.579 528.876 218.127L530.251 217.561L531.626 216.994C530.007 213.063 527.685 209.691 524.66 206.898L523.651 207.991ZM530.251 217.561L528.883 218.144C530.39 221.678 531.156 225.629 531.156 230.018H532.644H534.131C534.131 225.277 533.302 220.923 531.619 216.977L530.251 217.561ZM532.644 230.018H531.156C531.156 234.355 530.417 238.316 528.956 241.916L530.334 242.475L531.712 243.034C533.331 239.045 534.131 234.7 534.131 230.018H532.644ZM530.334 242.475L528.956 241.916C527.491 245.526 525.404 248.654 522.693 251.313L523.734 252.375L524.775 253.436C527.784 250.486 530.097 247.014 531.712 243.034L530.334 242.475ZM523.734 252.375L522.693 251.313C520.036 253.918 516.877 255.958 513.199 257.429L513.752 258.81L514.304 260.19C518.326 258.582 521.822 256.332 524.775 253.437L523.734 252.375ZM513.752 258.81L513.216 257.422C509.557 258.834 505.506 259.55 501.047 259.55V261.037V262.524C505.828 262.524 510.247 261.755 514.287 260.197L513.752 258.81ZM501.047 261.037V259.55C496.588 259.55 492.538 258.834 488.878 257.422L488.342 258.81L487.807 260.197C491.847 261.755 496.266 262.524 501.047 262.524V261.037ZM488.342 258.81L488.895 257.429C485.215 255.957 482.024 253.914 479.308 251.303L478.278 252.375L477.247 253.447C480.251 256.335 483.77 258.582 487.79 260.19L488.342 258.81ZM478.278 252.375L479.329 251.323C476.662 248.656 474.568 245.544 473.046 241.974L471.678 242.557L470.31 243.141C471.978 247.051 474.283 250.484 477.226 253.426L478.278 252.375ZM471.678 242.557L473.056 241.998C471.596 238.4 470.855 234.413 470.855 230.018H469.368H467.881C467.881 234.752 468.68 239.125 470.3 243.117L471.678 242.557ZM486.362 230.018H484.875C484.875 232.483 485.257 234.801 486.036 236.958L487.435 236.453L488.834 235.948C488.183 234.145 487.85 232.172 487.85 230.018H486.362ZM487.435 236.453L486.041 236.97C486.815 239.054 487.896 240.893 489.291 242.47L490.405 241.485L491.519 240.5C490.384 239.217 489.485 237.701 488.829 235.935L487.435 236.453ZM490.405 241.485L489.31 242.492C490.727 244.031 492.445 245.223 494.444 246.071L495.025 244.702L495.606 243.333C493.975 242.642 492.613 241.689 491.499 240.478L490.405 241.485ZM495.025 244.702L494.444 246.071C496.467 246.93 498.704 247.345 501.13 247.345V245.857V244.37C499.046 244.37 497.212 244.015 495.606 243.333L495.025 244.702ZM501.13 245.857V247.345C503.505 247.345 505.692 246.928 507.665 246.065L507.069 244.702L506.473 243.34C504.927 244.017 503.154 244.37 501.13 244.37V245.857ZM507.069 244.702L507.665 246.065C509.609 245.215 511.293 244.023 512.701 242.492L511.607 241.485L510.512 240.478C509.391 241.697 508.05 242.65 506.473 243.34L507.069 244.702ZM511.607 241.485L512.721 242.47C514.124 240.884 515.182 239.033 515.901 236.935L514.494 236.453L513.087 235.97C512.487 237.722 511.62 239.226 510.493 240.5L511.607 241.485ZM514.494 236.453L515.888 236.97C516.673 234.857 517.054 232.533 517.054 230.018H515.567H514.079C514.079 232.232 513.745 234.199 513.1 235.935L514.494 236.453ZM515.567 230.018H517.054C517.054 227.515 516.704 225.204 515.983 223.101L514.577 223.583L513.17 224.065C513.769 225.812 514.079 227.791 514.079 230.018H515.567ZM514.577 223.583L515.995 223.137C515.33 221.021 514.291 219.175 512.866 217.626L511.772 218.633L510.677 219.64C511.783 220.842 512.613 222.296 513.158 224.029L514.577 223.583ZM511.772 218.633L512.886 217.648C511.477 216.055 509.787 214.827 507.83 213.971L507.234 215.333L506.638 216.696C508.202 217.38 509.537 218.351 510.658 219.619L511.772 218.633ZM507.234 215.333L507.83 213.971C505.848 213.104 503.604 212.691 501.13 212.691V214.178V215.665C503.275 215.665 505.1 216.023 506.638 216.696L507.234 215.333ZM501.13 214.178V212.691C498.704 212.691 496.467 213.106 494.444 213.964L495.025 215.333L495.606 216.702C497.212 216.021 499.046 215.665 501.13 215.665V214.178ZM495.025 215.333L494.444 213.964C492.432 214.818 490.708 216.046 489.291 217.648L490.405 218.633L491.519 219.619C492.632 218.36 493.988 217.389 495.606 216.702L495.025 215.333ZM490.405 218.633L489.31 217.626C487.902 219.157 486.816 220.977 486.041 223.065L487.435 223.583L488.829 224.101C489.483 222.339 490.377 220.86 491.499 219.64L490.405 218.633ZM487.435 223.583L486.041 223.065C485.256 225.179 484.875 227.503 484.875 230.018H486.362H487.85C487.85 227.803 488.184 225.837 488.829 224.101L487.435 223.583ZM596.666 258.892V260.379H598.153V258.892H596.666ZM580.414 258.892H578.927V260.379H580.414V258.892ZM580.414 215.498H581.901V214.011H580.414V215.498ZM563.09 215.498V214.011H561.603V215.498H563.09ZM560.532 247.755L559.172 247.153L559.168 247.162L560.532 247.755ZM537.763 258.892H536.276V260.379H537.763V258.892ZM537.763 245.362V243.875H536.276V245.362H537.763ZM541.558 244.702L542.11 246.083L542.127 246.076L542.144 246.069L541.558 244.702ZM544.445 242.557L543.297 241.612L544.445 242.557ZM546.178 239.175L544.767 238.705L544.758 238.732L544.75 238.759L546.178 239.175ZM546.838 201.144V199.657H545.351V201.144H546.838ZM596.666 201.144H598.153V199.657H596.666V201.144ZM596.666 258.892V257.405H580.414V258.892V260.379H596.666V258.892ZM580.414 258.892H581.901V215.498H580.414H578.927V258.892H580.414ZM580.414 215.498V214.011H563.09V215.498V216.985H580.414V215.498ZM563.09 215.498H561.603V233.07H563.09H564.577V215.498H563.09ZM563.09 233.07H561.603C561.603 238.882 560.766 243.553 559.173 247.153L560.532 247.755L561.892 248.357C563.708 244.256 564.577 239.138 564.577 233.07H563.09ZM560.532 247.755L559.168 247.162C557.661 250.629 555.22 253.171 551.798 254.832L552.448 256.17L553.097 257.508C557.155 255.538 560.104 252.47 561.896 248.348L560.532 247.755ZM552.448 256.17L551.798 254.832C548.331 256.514 543.683 257.405 537.763 257.405V258.892V260.379C543.943 260.379 549.084 259.455 553.097 257.508L552.448 256.17ZM537.763 258.892H539.25V245.362H537.763H536.276V258.892H537.763ZM537.763 245.362V246.85C539.344 246.85 540.802 246.606 542.11 246.083L541.558 244.702L541.006 243.322C540.114 243.678 539.042 243.875 537.763 243.875V245.362ZM541.558 244.702L542.144 246.069C543.509 245.484 544.667 244.628 545.593 243.503L544.445 242.557L543.297 241.612C542.684 242.357 541.917 242.931 540.972 243.336L541.558 244.702ZM544.445 242.557L545.593 243.503C546.508 242.393 547.172 241.079 547.605 239.592L546.178 239.175L544.75 238.759C544.414 239.911 543.923 240.852 543.297 241.612L544.445 242.557ZM546.178 239.175L547.589 239.645C548.089 238.144 548.325 236.468 548.325 234.638H546.838H545.351C545.351 236.218 545.146 237.566 544.767 238.705L546.178 239.175ZM546.838 234.638H548.325V201.144H546.838H545.351V234.638H546.838ZM546.838 201.144V202.631H596.666V201.144V199.657H546.838V201.144ZM596.666 201.144H595.179V258.892H596.666H598.153V201.144H596.666ZM626.837 201.144H628.324V199.657H626.837V201.144ZM626.837 220.201H625.349V221.688H626.837V220.201ZM645.316 222.593L644.686 223.94L644.699 223.946L644.712 223.952L645.316 222.593ZM653.071 229.193L654.348 228.431L653.071 229.193ZM653.071 249.982L654.348 250.744L654.354 250.733L653.071 249.982ZM645.316 256.582L644.712 255.223L644.704 255.227L645.316 256.582ZM610.832 258.892H609.345V260.379H610.832V258.892ZM610.832 201.144V199.657H609.345V201.144H610.832ZM626.837 245.857H625.349V247.345H626.837V245.857ZM636.489 245.197L637.018 246.587L637.035 246.581L637.052 246.574L636.489 245.197ZM639.211 243.052L637.996 242.195L637.979 242.219L637.963 242.245L639.211 243.052ZM639.211 236.04L637.942 236.816L637.958 236.841L637.974 236.865L639.211 236.04ZM636.489 233.895L635.903 235.262L635.941 235.279L635.981 235.293L636.489 233.895ZM626.837 233.153V231.666H625.349V233.153H626.837ZM626.837 201.144H625.349V220.201H626.837H628.324V201.144H626.837ZM626.837 220.201V221.688H632.281V220.201V218.714H626.837V220.201ZM632.281 220.201V221.688C637.425 221.688 641.536 222.467 644.686 223.94L645.316 222.593L645.946 221.246C642.276 219.529 637.697 218.714 632.281 218.714V220.201ZM645.316 222.593L644.712 223.952C647.937 225.385 650.267 227.394 651.793 229.954L653.071 229.193L654.348 228.431C652.465 225.272 649.625 222.881 645.92 221.234L645.316 222.593ZM653.071 229.193L651.793 229.954C653.335 232.541 654.141 235.703 654.141 239.505H655.628H657.115C657.115 235.277 656.216 231.565 654.348 228.431L653.071 229.193ZM655.628 239.505H654.141C654.141 243.365 653.334 246.587 651.787 249.231L653.071 249.982L654.354 250.733C656.218 247.548 657.115 243.785 657.115 239.505H655.628ZM653.071 249.982L651.793 249.221C650.267 251.781 647.937 253.79 644.712 255.223L645.316 256.582L645.92 257.941C649.625 256.294 652.465 253.903 654.348 250.744L653.071 249.982ZM645.316 256.582L644.704 255.227C641.548 256.652 637.431 257.405 632.281 257.405V258.892V260.379C637.692 260.379 642.264 259.592 645.928 257.937L645.316 256.582ZM632.281 258.892V257.405H610.832V258.892V260.379H632.281V258.892ZM610.832 258.892H612.319V201.144H610.832H609.345V258.892H610.832ZM610.832 201.144V202.631H626.837V201.144V199.657H610.832V201.144ZM626.837 245.857V247.345H632.281V245.857V244.37H626.837V245.857ZM632.281 245.857V247.345C634.055 247.345 635.648 247.109 637.018 246.587L636.489 245.197L635.959 243.808C635.02 244.166 633.807 244.37 632.281 244.37V245.857ZM636.489 245.197L637.052 246.574C638.493 245.984 639.663 245.092 640.46 243.86L639.211 243.052L637.963 242.245C637.55 242.882 636.905 243.421 635.926 243.821L636.489 245.197ZM639.211 243.052L640.426 243.91C641.303 242.668 641.688 241.165 641.688 239.505H640.201H638.714C638.714 240.705 638.439 241.567 637.996 242.195L639.211 243.052ZM640.201 239.505H641.688C641.688 237.925 641.289 236.476 640.449 235.215L639.211 236.04L637.974 236.865C638.453 237.584 638.714 238.445 638.714 239.505H640.201ZM639.211 236.04L640.48 235.265C639.68 233.955 638.487 233.039 636.997 232.498L636.489 233.895L635.981 235.293C636.911 235.631 637.532 236.145 637.942 236.816L639.211 236.04ZM636.489 233.895L637.075 232.528C635.686 231.933 634.073 231.666 632.281 231.666V233.153V234.64C633.79 234.64 634.981 234.867 635.903 235.262L636.489 233.895ZM632.281 233.153V231.666H626.837V233.153V234.64H632.281V233.153ZM626.837 233.153H625.349V245.857H626.837H628.324V233.153H626.837ZM685.615 224.161V222.673H684.128V224.161H685.615ZM692.05 223.418L691.647 221.986L691.635 221.99L692.05 223.418ZM695.844 221.273L694.702 220.321L694.697 220.328L695.844 221.273ZM696.174 215.168L694.937 215.993L694.956 216.021L694.975 216.048L696.174 215.168ZM684.707 213.436L685.229 214.828L685.255 214.819L685.279 214.809L684.707 213.436ZM680.747 218.716V220.203H682.235V218.716H680.747ZM665.98 218.716H664.493V220.203H665.98V218.716ZM668.62 209.228L667.354 208.449L668.62 209.228ZM676.458 202.464L677.097 203.806L677.106 203.802L676.458 202.464ZM702.444 202.051L701.877 203.426L701.885 203.429L702.444 202.051ZM710.282 207.909L709.057 208.752L709.061 208.759L709.066 208.765L710.282 207.909ZM710.694 223.006L711.875 223.909L711.882 223.901L711.888 223.892L710.694 223.006ZM704.837 227.543L704.208 226.195L704.169 226.213L704.132 226.234L704.837 227.543ZM702.609 228.533L702.109 227.132L697.971 228.61L702.156 229.949L702.609 228.533ZM706.404 230.1L707.103 228.787L707.094 228.783L706.404 230.1ZM712.344 235.298L711.102 236.115L711.109 236.126L711.117 236.137L712.344 235.298ZM711.767 251.962L710.541 251.12L710.535 251.128L710.529 251.137L711.767 251.962ZM703.682 258.15L703.119 256.773L703.111 256.776L703.682 258.15ZM678.025 258.645L677.521 260.043L677.531 260.047L677.541 260.051L678.025 258.645ZM669.775 253.942L668.767 255.035L668.774 255.042L668.782 255.049L669.775 253.942ZM664.99 247.342L663.61 247.895L663.617 247.913L663.625 247.932L664.99 247.342ZM663.505 239.505V238.018H662.018V239.505H663.505ZM679.427 239.505H680.915V238.018H679.427V239.505ZM680.747 244.29L679.545 245.165L679.557 245.182L679.571 245.199L680.747 244.29ZM684.377 246.93L683.861 248.324L683.869 248.327L683.877 248.33L684.377 246.93ZM694.277 247.177L694.678 248.609L694.704 248.602L694.73 248.594L694.277 247.177ZM697.494 245.115L696.352 244.163L696.346 244.17L697.494 245.115ZM697.989 238.515L696.659 239.18L696.685 239.231L696.714 239.28L697.989 238.515ZM695.762 236.205L694.937 237.443L694.952 237.453L694.968 237.463L695.762 236.205ZM691.802 234.72L691.464 236.168L691.487 236.174L691.51 236.178L691.802 234.72ZM685.615 234.143H684.128V235.63H685.615V234.143ZM685.615 224.161V225.648C688.282 225.648 690.578 225.394 692.464 224.846L692.05 223.418L691.635 221.99C690.111 222.432 688.117 222.673 685.615 222.673V224.161ZM692.05 223.418L692.452 224.85C694.365 224.312 695.954 223.479 696.992 222.219L695.844 221.273L694.697 220.328C694.195 220.937 693.255 221.534 691.647 221.986L692.05 223.418ZM695.844 221.273L696.987 222.225C698.019 220.987 698.569 219.555 698.569 217.973H697.082H695.595C695.595 218.812 695.32 219.58 694.702 220.321L695.844 221.273ZM697.082 217.973H698.569C698.569 216.619 698.17 215.375 697.374 214.289L696.174 215.168L694.975 216.048C695.389 216.612 695.595 217.237 695.595 217.973H697.082ZM696.174 215.168L697.412 214.343C696.652 213.204 695.518 212.404 694.146 211.881L693.617 213.271L693.088 214.661C694.026 215.018 694.597 215.483 694.937 215.993L696.174 215.168ZM693.617 213.271L694.146 211.881C692.776 211.359 691.184 211.124 689.41 211.124V212.611V214.098C690.936 214.098 692.148 214.303 693.088 214.661L693.617 213.271ZM689.41 212.611V211.124C687.449 211.124 685.678 211.42 684.135 212.063L684.707 213.436L685.279 214.809C686.376 214.351 687.74 214.098 689.41 214.098V212.611ZM684.707 213.436L684.185 212.043C682.651 212.619 681.391 213.493 680.522 214.723L681.737 215.581L682.952 216.438C683.404 215.799 684.124 215.243 685.229 214.828L684.707 213.436ZM681.737 215.581L680.522 214.723C679.684 215.912 679.26 217.257 679.26 218.716H680.747H682.235C682.235 217.865 682.471 217.12 682.952 216.438L681.737 215.581ZM680.747 218.716V217.229H665.98V218.716V220.203H680.747V218.716ZM665.98 218.716H667.468C667.468 215.517 668.276 212.626 669.887 210.008L668.62 209.228L667.354 208.449C665.445 211.551 664.493 214.985 664.493 218.716H665.98ZM668.62 209.228L669.887 210.008C671.476 207.426 673.853 205.351 677.097 203.806L676.458 202.464L675.818 201.121C672.132 202.876 669.285 205.311 667.354 208.449L668.62 209.228ZM676.458 202.464L677.106 203.802C680.371 202.22 684.453 201.393 689.41 201.393V199.906V198.419C684.137 198.419 679.584 199.297 675.809 201.125L676.458 202.464ZM689.41 199.906V201.393C694.511 201.393 698.648 202.093 701.877 203.426L702.444 202.051L703.012 200.676C699.311 199.149 694.758 198.419 689.41 198.419V199.906ZM702.444 202.051L701.885 203.429C705.206 204.778 707.555 206.572 709.057 208.752L710.282 207.909L711.506 207.065C709.598 204.295 706.722 202.184 703.004 200.673L702.444 202.051ZM710.282 207.909L709.066 208.765C710.587 210.924 711.352 213.372 711.352 216.158H712.839H714.326C714.326 212.785 713.386 209.733 711.497 207.052L710.282 207.909ZM712.839 216.158H711.352C711.352 218.513 710.72 220.476 709.5 222.119L710.694 223.006L711.888 223.892C713.528 221.685 714.326 219.084 714.326 216.158H712.839ZM710.694 223.006L709.513 222.102C708.25 223.753 706.5 225.125 704.208 226.195L704.837 227.543L705.466 228.891C708.123 227.65 710.278 225.998 711.875 223.909L710.694 223.006ZM704.837 227.543L704.132 226.234C703.483 226.583 702.809 226.882 702.109 227.132L702.609 228.533L703.109 229.933C703.949 229.633 704.76 229.273 705.542 228.852L704.837 227.543ZM702.609 228.533L702.156 229.949C703.458 230.366 704.643 230.856 705.714 231.418L706.404 230.1L707.094 228.783C705.856 228.134 704.511 227.58 703.063 227.117L702.609 228.533ZM706.404 230.1L705.706 231.413C708.108 232.691 709.885 234.266 711.102 236.115L712.344 235.298L713.586 234.48C712.053 232.149 709.87 230.259 707.103 228.787L706.404 230.1ZM712.344 235.298L711.117 236.137C712.347 237.935 713.002 240.185 713.002 242.97H714.489H715.976C715.976 239.705 715.201 236.84 713.571 234.458L712.344 235.298ZM714.489 242.97H713.002C713.002 246.039 712.177 248.74 710.541 251.12L711.767 251.962L712.992 252.805C714.986 249.905 715.976 246.611 715.976 242.97H714.489ZM711.767 251.962L710.529 251.137C708.969 253.477 706.539 255.374 703.119 256.773L703.682 258.15L704.245 259.526C708.084 257.955 711.044 255.727 713.004 252.787L711.767 251.962ZM703.682 258.15L703.111 256.776C699.775 258.162 695.475 258.89 690.152 258.89V260.377V261.864C695.719 261.864 700.439 261.107 704.252 259.523L703.682 258.15ZM690.152 260.377V258.89C685.536 258.89 681.666 258.325 678.509 257.238L678.025 258.645L677.541 260.051C681.094 261.274 685.309 261.864 690.152 261.864V260.377ZM678.025 258.645L678.53 257.246C675.313 256.086 672.741 254.606 670.769 252.835L669.775 253.942L668.782 255.049C671.099 257.128 674.027 258.783 677.521 260.043L678.025 258.645ZM669.775 253.942L670.784 252.849C668.775 250.995 667.31 248.962 666.356 246.753L664.99 247.342L663.625 247.932C664.761 250.562 666.485 252.929 668.767 255.035L669.775 253.942ZM664.99 247.342L666.371 246.79C665.454 244.496 664.993 242.072 664.993 239.505H663.505H662.018C662.018 242.438 662.547 245.238 663.61 247.895L664.99 247.342ZM663.505 239.505V240.992H679.427V239.505V238.018H663.505V239.505ZM679.427 239.505H677.94C677.94 241.699 678.428 243.63 679.545 245.165L680.747 244.29L681.95 243.415C681.307 242.53 680.915 241.272 680.915 239.505H679.427ZM680.747 244.29L679.571 245.199C680.682 246.638 682.124 247.681 683.861 248.324L684.377 246.93L684.894 245.535C683.66 245.078 682.683 244.362 681.924 243.381L680.747 244.29ZM684.377 246.93L683.877 248.33C685.594 248.944 687.443 249.242 689.41 249.242V247.755V246.268C687.747 246.268 686.24 246.016 684.878 245.529L684.377 246.93ZM689.41 247.755V249.242C691.376 249.242 693.139 249.04 694.678 248.609L694.277 247.177L693.876 245.745C692.665 246.084 691.183 246.268 689.41 246.268V247.755ZM694.277 247.177L694.73 248.594C696.324 248.084 697.659 247.255 698.642 246.06L697.494 245.115L696.346 244.17C695.79 244.845 694.98 245.391 693.824 245.761L694.277 247.177ZM697.494 245.115L698.637 246.067C699.718 244.77 700.219 243.179 700.219 241.403H698.732H697.245C697.245 242.596 696.921 243.48 696.352 244.163L697.494 245.115ZM698.732 241.403H700.219C700.219 240.072 699.917 238.838 699.265 237.75L697.989 238.515L696.714 239.28C697.052 239.843 697.245 240.533 697.245 241.403H698.732ZM697.989 238.515L699.32 237.85C698.731 236.672 697.772 235.716 696.556 234.948L695.762 236.205L694.968 237.463C695.842 238.014 696.368 238.598 696.659 239.18L697.989 238.515ZM695.762 236.205L696.587 234.968C695.383 234.165 693.861 233.615 692.094 233.262L691.802 234.72L691.51 236.178C693.043 236.485 694.161 236.925 694.937 237.443L695.762 236.205ZM691.802 234.72L692.14 233.272C690.341 232.852 688.156 232.656 685.615 232.656V234.143V235.63C688.023 235.63 689.963 235.818 691.464 236.168L691.802 234.72ZM685.615 234.143H687.102V224.161H685.615H684.128V234.143H685.615ZM716.706 258.892L715.382 258.215L714.275 260.379H716.706V258.892ZM748.22 197.266L749.544 196.589L748.22 194L746.896 196.589L748.22 197.266ZM779.734 258.892V260.379H782.165L781.058 258.215L779.734 258.892ZM761.502 258.892L760.184 259.581L760.601 260.379H761.502V258.892ZM756.717 249.735L758.036 249.046L757.618 248.248H756.717V249.735ZM739.64 249.735V248.248H738.732L738.318 249.055L739.64 249.735ZM734.938 258.892V260.379H735.846L736.261 259.571L734.938 258.892ZM742.528 237.773L741.168 237.171L740.244 239.26H742.528V237.773ZM753.83 237.773V239.26H756.101L755.193 237.178L753.83 237.773ZM748.22 224.903L749.583 224.309L748.23 221.204L746.86 224.301L748.22 224.903ZM716.706 258.892L718.03 259.569L749.544 197.943L748.22 197.266L746.896 196.589L715.382 258.215L716.706 258.892ZM748.22 197.266L746.896 197.943L778.41 259.569L779.734 258.892L781.058 258.215L749.544 196.589L748.22 197.266ZM779.734 258.892V257.405H761.502V258.892V260.379H779.734V258.892ZM761.502 258.892L762.82 258.203L758.036 249.046L756.717 249.735L755.399 250.424L760.184 259.581L761.502 258.892ZM756.717 249.735V248.248H739.64V249.735V251.222H756.717V249.735ZM739.64 249.735L738.318 249.055L733.615 258.213L734.938 258.892L736.261 259.571L740.963 250.414L739.64 249.735ZM734.938 258.892V257.405H716.706V258.892V260.379H734.938V258.892ZM742.528 237.773V239.26H753.83V237.773V236.285H742.528V237.773ZM753.83 237.773L755.193 237.178L749.583 224.309L748.22 224.903L746.857 225.497L752.467 238.367L753.83 237.773ZM748.22 224.903L746.86 224.301L741.168 237.171L742.528 237.773L743.888 238.374L749.58 225.505L748.22 224.903ZM804.716 201.144L806.198 201.263L806.327 199.657H804.716V201.144ZM801.663 239.093V240.58H803.036L803.146 239.212L801.663 239.093ZM790.031 239.093L788.548 239.209L788.656 240.58H790.031V239.093ZM787.061 201.144V199.657H785.453L785.578 201.26L787.061 201.144ZM789.536 247.507L788.58 246.368L788.571 246.376L788.562 246.384L789.536 247.507ZM802.076 247.507L801.083 248.615L801.092 248.623L801.102 248.631L802.076 247.507ZM802.076 258.975L801.102 257.851L801.092 257.859L801.083 257.867L802.076 258.975ZM789.536 258.975L788.562 260.098L788.571 260.106L788.58 260.114L789.536 258.975ZM804.716 201.144L803.233 201.024L800.181 238.973L801.663 239.093L803.146 239.212L806.198 201.263L804.716 201.144ZM801.663 239.093V237.605H790.031V239.093V240.58H801.663V239.093ZM790.031 239.093L791.514 238.977L788.544 201.028L787.061 201.144L785.578 201.26L788.548 239.209L790.031 239.093ZM787.061 201.144V202.631H804.716V201.144V199.657H787.061V201.144ZM787.061 253.282H788.548C788.548 251.241 789.224 249.746 790.51 248.631L789.536 247.507L788.562 246.384C786.549 248.129 785.574 250.483 785.574 253.282H787.061ZM789.536 247.507L790.492 248.647C791.898 247.467 793.639 246.85 795.806 246.85V245.362V243.875C793.023 243.875 790.584 244.688 788.58 246.368L789.536 247.507ZM795.806 245.362V246.85C798.104 246.85 799.815 247.478 801.083 248.615L802.076 247.507L803.068 246.4C801.147 244.677 798.678 243.875 795.806 243.875V245.362ZM802.076 247.507L801.102 248.631C802.388 249.746 803.063 251.241 803.063 253.282H804.551H806.038C806.038 250.483 805.063 248.129 803.05 246.384L802.076 247.507ZM804.551 253.282H803.063C803.063 255.256 802.396 256.729 801.102 257.851L802.076 258.975L803.05 260.098C805.055 258.36 806.038 256.038 806.038 253.282H804.551ZM802.076 258.975L801.083 257.867C799.815 259.004 798.104 259.632 795.806 259.632V261.119V262.607C798.678 262.607 801.147 261.805 803.068 260.082L802.076 258.975ZM795.806 261.119V259.632C793.639 259.632 791.898 259.015 790.492 257.835L789.536 258.975L788.58 260.114C790.584 261.794 793.023 262.607 795.806 262.607V261.119ZM789.536 258.975L790.51 257.851C789.215 256.729 788.548 255.256 788.548 253.282H787.061H785.574C785.574 256.038 786.557 258.36 788.562 260.098L789.536 258.975Z" fill="white"/>
</svg>
