<svg width="18" height="18" viewBox="0 0 18 18" fill="none" xmlns="http://www.w3.org/2000/svg">
<path d="M18 9C18.002 9.26384 17.9218 9.52176 17.7706 9.73791C17.6193 9.95406 17.4045 10.1177 17.156 10.2061L12.0566 12.061L10.203 17.1612C10.1116 17.4074 9.94712 17.6197 9.73158 17.7697C9.51605 17.9196 9.2598 18 8.99726 18C8.73472 18 8.47847 17.9196 8.26293 17.7697C8.0474 17.6197 7.8829 17.4074 7.79154 17.1612L5.93795 12.0602L0.838557 10.2061C0.592426 10.1147 0.380152 9.95015 0.23025 9.73455C0.080348 9.51895 0 9.26262 0 9C0 8.73738 0.080348 8.48105 0.23025 8.26545C0.380152 8.04985 0.592426 7.8853 0.838557 7.79391L5.93795 5.93976L7.79154 0.838812C7.8829 0.592607 8.0474 0.380268 8.26293 0.23032C8.47847 0.0803725 8.73472 0 8.99726 0C9.2598 0 9.51605 0.0803725 9.73158 0.23032C9.94712 0.380268 10.1116 0.592607 10.203 0.838812L12.0574 5.93976L17.156 7.79391C17.4045 7.8823 17.6193 8.04594 17.7706 8.26209C17.9218 8.47824 18.002 8.73616 18 9Z" fill="white"/>
</svg>
