<svg width="38" height="38" viewBox="0 0 38 38" fill="none" xmlns="http://www.w3.org/2000/svg">
<path d="M37.9999 19C38.0042 19.557 37.835 20.1015 37.5156 20.5578C37.1963 21.0141 36.7428 21.3596 36.2181 21.5462L25.4528 25.4622L21.5396 36.2292C21.3467 36.7489 20.9995 37.1972 20.5445 37.5138C20.0894 37.8303 19.5485 38 18.9942 38C18.44 38 17.899 37.8303 17.444 37.5138C16.9889 37.1972 16.6417 36.7489 16.4488 36.2292L12.5357 25.4605L1.77029 21.5462C1.25068 21.3533 0.802543 21.0059 0.486083 20.5507C0.169624 20.0956 0 19.5544 0 19C0 18.4456 0.169624 17.9044 0.486083 17.4493C0.802543 16.9941 1.25068 16.6467 1.77029 16.4538L12.5357 12.5395L16.4488 1.77083C16.6417 1.25106 16.9889 0.802787 17.444 0.486231C17.899 0.169675 18.44 0 18.9942 0C19.5485 0 20.0894 0.169675 20.5445 0.486231C20.9995 0.802787 21.3467 1.25106 21.5396 1.77083L25.4545 12.5395L36.2181 16.4538C36.7428 16.6404 37.1963 16.9859 37.5156 17.4422C37.835 17.8985 38.0042 18.443 37.9999 19Z" fill="white"/>
</svg>
