<svg width="31" height="31" viewBox="0 0 31 31" fill="none" xmlns="http://www.w3.org/2000/svg">
<path d="M30.9999 15.5C31.0035 15.9544 30.8654 16.3986 30.6049 16.7708C30.3444 17.1431 29.9744 17.4249 29.5464 17.5772L20.7641 20.7718L17.5718 29.5554C17.4145 29.9794 17.1311 30.3451 16.7599 30.6033C16.3887 30.8616 15.9474 31 15.4953 31C15.0431 31 14.6018 30.8616 14.2306 30.6033C13.8594 30.3451 13.5761 29.9794 13.4188 29.5554L10.2265 20.7704L1.44418 17.5772C1.02029 17.4198 0.654706 17.1364 0.396542 16.7651C0.138377 16.3937 0 15.9523 0 15.5C0 15.0477 0.138377 14.6063 0.396542 14.2349C0.654706 13.8636 1.02029 13.5802 1.44418 13.4229L10.2265 10.2296L13.4188 1.44462C13.5761 1.0206 13.8594 0.654905 14.2306 0.396662C14.6018 0.138419 15.0431 0 15.4953 0C15.9474 0 16.3887 0.138419 16.7599 0.396662C17.1311 0.654905 17.4145 1.0206 17.5718 1.44462L20.7655 10.2296L29.5464 13.4229C29.9744 13.5751 30.3444 13.8569 30.6049 14.2292C30.8654 14.6014 31.0035 15.0456 30.9999 15.5Z" fill="white"/>
</svg>
